<svg version="1.1"  xmlns="http://www.w3.org/2000/svg">
  <symbol id="test" width="79" height="53" viewBox="0 0 79 53">
  </symbol>
  <symbol id="icon-twitter" width="37" height="26" viewBox="0 0 37 26">
    <path fill-rule="evenodd" clip-rule="evenodd" d="M0 0H10.4V2.6H15.6V5.2H18.2V7.8H20.8V2.6H23.4V0H31.2V2.6H33.8V5.2H36.4V7.8H33.8V10.4V13V15.6H31.2V18.2H28.6V20.8H26V23.4H20.8V26H10.4V23.4H7.8H2.6V20.8H7.8V18.2H13V15.6H10.4V13H7.8H5.2V10.4H7.8V7.8H2.6V5.2H5.2V2.6H0V0ZM33.8 2.6V0H36.4V2.6H33.8Z" fill="#24FFDE"/>
  </symbol>
  <symbol id="icon-logo" width="252" height="41" viewBox="0 0 252 41">
    <path d="M0.0333757 4.94502H16.0578V8.95113H20.0639V0.938915H0.0333757V4.94502ZM16.0578 8.95113H12.0517V16.9633H16.0578V8.95113ZM12.0517 16.9633H8.04559V24.9756H12.0517V16.9633ZM8.04559 24.9756H4.03948V32.9878H8.04559V24.9756ZM20.0639 36.9939H4.03948V32.9878H0.0333757V41H20.0639V36.9939ZM48.1201 36.9939H32.0957V20.9695H48.1201V16.9633H32.0957V4.94502H48.1201V0.938915H28.0895V41H48.1201V36.9939ZM72.1702 0.938915H56.1457V41H60.1518V24.9756H64.1579V20.9695H72.1702V16.9633H60.1518V4.94502H72.1702V0.938915ZM72.1702 4.94502V8.95113H76.1763V4.94502H72.1702ZM76.1763 8.95113V12.9572H80.1824V8.95113H76.1763ZM72.1702 12.9572V16.9633H76.1763V12.9572H72.1702ZM64.1579 24.9756V28.9817H68.164V24.9756H64.1579ZM68.164 28.9817V32.9878H72.1702V28.9817H68.164ZM72.1702 32.9878V36.9939H76.1763V32.9878H72.1702ZM76.1763 36.9939V41H80.1824V36.9939H76.1763ZM119.685 0.938915H107.666V4.94502H115.678V12.9572H119.685V0.938915ZM107.666 4.94502H103.66V8.95113H107.666V4.94502ZM103.66 8.95113H99.654V12.9572H103.66V8.95113ZM99.654 12.9572H95.6479V16.9633H99.654V12.9572ZM111.672 16.9633H115.678V12.9572H111.672V16.9633ZM95.6479 16.9633H91.6418V20.9695H95.6479V16.9633ZM107.666 20.9695H111.672V16.9633H107.666V20.9695ZM91.6418 20.9695H87.6357V24.9756H91.6418V20.9695ZM103.66 24.9756H107.666V20.9695H103.66V24.9756ZM87.6357 24.9756H83.6296V28.9817H87.6357V24.9756ZM99.654 28.9817H103.66V24.9756H99.654V28.9817ZM83.6296 36.9939V28.9817H79.6235V41H91.6418V36.9939H83.6296ZM95.6479 32.9878H99.654V28.9817H95.6479V32.9878ZM91.6418 36.9939H95.6479V32.9878H91.6418V36.9939ZM139.729 36.9939H131.716V0.938915H127.71V4.94502H123.704V8.95113H127.71V36.9939H119.698V41H139.729V36.9939ZM119.698 8.95113V12.9572H123.704V8.95113H119.698ZM143.748 4.94502H155.766V41H159.772V4.94502H171.791V0.938915H143.748V4.94502ZM195.841 36.9939H179.816V20.9695H195.841V16.9633H179.816V4.94502H195.841V0.938915H175.81V41H195.841V36.9939ZM215.885 0.938915H211.879V8.95113H215.885V0.938915ZM211.879 8.95113H207.873V24.9756H211.879V8.95113ZM219.891 8.95113H215.885V24.9756H219.891V8.95113ZM207.873 24.9756H203.866V41H207.873V24.9756ZM215.885 24.9756H211.879V32.9878H215.885V24.9756ZM223.897 24.9756H219.891V41H223.897V24.9756ZM235.929 0.938915H231.923V41H235.929V16.9633H239.935V8.95113H235.929V0.938915ZM243.941 16.9633H247.947V41H251.953V0.938915H247.947V8.95113H243.941V16.9633ZM243.941 16.9633H239.935V24.9756H243.941V16.9633Z" fill="black"/>
  </symbol>
  <symbol id="icon-sun" width="32" height="32" viewBox="0 0 32 32">
    <path d="M15 5V2C15 1.73478 15.1054 1.48043 15.2929 1.29289C15.4804 1.10536 15.7348 1 16 1C16.2652 1 16.5196 1.10536 16.7071 1.29289C16.8946 1.48043 17 1.73478 17 2V5C17 5.26522 16.8946 5.51957 16.7071 5.70711C16.5196 5.89464 16.2652 6 16 6C15.7348 6 15.4804 5.89464 15.2929 5.70711C15.1054 5.51957 15 5.26522 15 5ZM24 16C24 17.5823 23.5308 19.129 22.6518 20.4446C21.7727 21.7602 20.5233 22.7855 19.0615 23.391C17.5997 23.9965 15.9911 24.155 14.4393 23.8463C12.8874 23.5376 11.462 22.7757 10.3431 21.6569C9.22433 20.538 8.4624 19.1126 8.15372 17.5607C7.84504 16.0089 8.00346 14.4003 8.60896 12.9385C9.21447 11.4767 10.2398 10.2273 11.5554 9.34824C12.871 8.46919 14.4177 8 16 8C18.121 8.00232 20.1545 8.84591 21.6543 10.3457C23.1541 11.8455 23.9977 13.879 24 16ZM22 16C22 14.8133 21.6481 13.6533 20.9888 12.6666C20.3295 11.6799 19.3925 10.9108 18.2961 10.4567C17.1997 10.0026 15.9933 9.88378 14.8295 10.1153C13.6656 10.3468 12.5965 10.9182 11.7574 11.7574C10.9182 12.5965 10.3468 13.6656 10.1153 14.8295C9.88378 15.9933 10.0026 17.1997 10.4567 18.2961C10.9108 19.3925 11.6799 20.3295 12.6666 20.9888C13.6533 21.6481 14.8133 22 16 22C17.5908 21.9983 19.116 21.3657 20.2408 20.2408C21.3657 19.116 21.9983 17.5908 22 16ZM7.2925 8.7075C7.48014 8.89514 7.73464 9.00056 8 9.00056C8.26536 9.00056 8.51986 8.89514 8.7075 8.7075C8.89514 8.51986 9.00056 8.26536 9.00056 8C9.00056 7.73464 8.89514 7.48014 8.7075 7.2925L6.7075 5.2925C6.51986 5.10486 6.26536 4.99944 6 4.99944C5.73464 4.99944 5.48014 5.10486 5.2925 5.2925C5.10486 5.48014 4.99944 5.73464 4.99944 6C4.99944 6.26536 5.10486 6.51986 5.2925 6.7075L7.2925 8.7075ZM7.2925 23.2925L5.2925 25.2925C5.10486 25.4801 4.99944 25.7346 4.99944 26C4.99944 26.2654 5.10486 26.5199 5.2925 26.7075C5.48014 26.8951 5.73464 27.0006 6 27.0006C6.26536 27.0006 6.51986 26.8951 6.7075 26.7075L8.7075 24.7075C8.80041 24.6146 8.87411 24.5043 8.92439 24.3829C8.97468 24.2615 9.00056 24.1314 9.00056 24C9.00056 23.8686 8.97468 23.7385 8.92439 23.6171C8.87411 23.4957 8.80041 23.3854 8.7075 23.2925C8.61459 23.1996 8.50429 23.1259 8.3829 23.0756C8.2615 23.0253 8.13139 22.9994 8 22.9994C7.86861 22.9994 7.7385 23.0253 7.6171 23.0756C7.49571 23.1259 7.38541 23.1996 7.2925 23.2925ZM24 9C24.1314 9.0001 24.2615 8.97432 24.3829 8.92414C24.5042 8.87395 24.6146 8.80033 24.7075 8.7075L26.7075 6.7075C26.8951 6.51986 27.0006 6.26536 27.0006 6C27.0006 5.73464 26.8951 5.48014 26.7075 5.2925C26.5199 5.10486 26.2654 4.99944 26 4.99944C25.7346 4.99944 25.4801 5.10486 25.2925 5.2925L23.2925 7.2925C23.1525 7.43236 23.0571 7.61061 23.0185 7.80469C22.9798 7.99878 22.9996 8.19997 23.0754 8.38279C23.1511 8.56561 23.2794 8.72185 23.444 8.83172C23.6086 8.94159 23.8021 9.00016 24 9ZM24.7075 23.2925C24.5199 23.1049 24.2654 22.9994 24 22.9994C23.7346 22.9994 23.4801 23.1049 23.2925 23.2925C23.1049 23.4801 22.9994 23.7346 22.9994 24C22.9994 24.2654 23.1049 24.5199 23.2925 24.7075L25.2925 26.7075C25.3854 26.8004 25.4957 26.8741 25.6171 26.9244C25.7385 26.9747 25.8686 27.0006 26 27.0006C26.1314 27.0006 26.2615 26.9747 26.3829 26.9244C26.5043 26.8741 26.6146 26.8004 26.7075 26.7075C26.8004 26.6146 26.8741 26.5043 26.9244 26.3829C26.9747 26.2615 27.0006 26.1314 27.0006 26C27.0006 25.8686 26.9747 25.7385 26.9244 25.6171C26.8741 25.4957 26.8004 25.3854 26.7075 25.2925L24.7075 23.2925ZM6 16C6 15.7348 5.89464 15.4804 5.70711 15.2929C5.51957 15.1054 5.26522 15 5 15H2C1.73478 15 1.48043 15.1054 1.29289 15.2929C1.10536 15.4804 1 15.7348 1 16C1 16.2652 1.10536 16.5196 1.29289 16.7071C1.48043 16.8946 1.73478 17 2 17H5C5.26522 17 5.51957 16.8946 5.70711 16.7071C5.89464 16.5196 6 16.2652 6 16ZM16 26C15.7348 26 15.4804 26.1054 15.2929 26.2929C15.1054 26.4804 15 26.7348 15 27V30C15 30.2652 15.1054 30.5196 15.2929 30.7071C15.4804 30.8946 15.7348 31 16 31C16.2652 31 16.5196 30.8946 16.7071 30.7071C16.8946 30.5196 17 30.2652 17 30V27C17 26.7348 16.8946 26.4804 16.7071 26.2929C16.5196 26.1054 16.2652 26 16 26ZM30 15H27C26.7348 15 26.4804 15.1054 26.2929 15.2929C26.1054 15.4804 26 15.7348 26 16C26 16.2652 26.1054 16.5196 26.2929 16.7071C26.4804 16.8946 26.7348 17 27 17H30C30.2652 17 30.5196 16.8946 30.7071 16.7071C30.8946 16.5196 31 16.2652 31 16C31 15.7348 30.8946 15.4804 30.7071 15.2929C30.5196 15.1054 30.2652 15 30 15Z"/>
  </symbol>
  <symbol id="icon-moon" width="32" height="32" viewBox="0 0 32 32">
    <path d="M16.0001 29.3334C23.3641 29.3334 29.3334 23.3641 29.3334 16.0001C29.3334 15.3827 28.4081 15.2801 28.0894 15.8094C27.4097 16.9352 26.4828 17.8916 25.3788 18.606C24.2747 19.3205 23.0226 19.7744 21.7172 19.9333C20.4118 20.0922 19.0873 19.9519 17.8441 19.5231C16.601 19.0943 15.4717 18.3883 14.5418 17.4584C13.6119 16.5285 12.9058 15.3992 12.477 14.156C12.0483 12.9128 11.908 11.5884 12.0669 10.283C12.2258 8.97756 12.6796 7.72542 13.3941 6.6214C14.1086 5.51737 15.065 4.59042 16.1907 3.91075C16.7201 3.59075 16.6174 2.66675 16.0001 2.66675C8.63608 2.66675 2.66675 8.63608 2.66675 16.0001C2.66675 23.3641 8.63608 29.3334 16.0001 29.3334Z"/>
  </symbol>
</svg>
