<svg width="252" height="41" viewBox="0 0 252 41" fill="none" xmlns="http://www.w3.org/2000/svg">
<path d="M0.0333757 4.94502H16.0578V8.95113H20.0639V0.938915H0.0333757V4.94502ZM16.0578 8.95113H12.0517V16.9633H16.0578V8.95113ZM12.0517 16.9633H8.04559V24.9756H12.0517V16.9633ZM8.04559 24.9756H4.03948V32.9878H8.04559V24.9756ZM20.0639 36.9939H4.03948V32.9878H0.0333757V41H20.0639V36.9939ZM48.1201 36.9939H32.0957V20.9695H48.1201V16.9633H32.0957V4.94502H48.1201V0.938915H28.0895V41H48.1201V36.9939ZM72.1702 0.938915H56.1457V41H60.1518V24.9756H64.1579V20.9695H72.1702V16.9633H60.1518V4.94502H72.1702V0.938915ZM72.1702 4.94502V8.95113H76.1763V4.94502H72.1702ZM76.1763 8.95113V12.9572H80.1824V8.95113H76.1763ZM72.1702 12.9572V16.9633H76.1763V12.9572H72.1702ZM64.1579 24.9756V28.9817H68.164V24.9756H64.1579ZM68.164 28.9817V32.9878H72.1702V28.9817H68.164ZM72.1702 32.9878V36.9939H76.1763V32.9878H72.1702ZM76.1763 36.9939V41H80.1824V36.9939H76.1763ZM119.685 0.938915H107.666V4.94502H115.678V12.9572H119.685V0.938915ZM107.666 4.94502H103.66V8.95113H107.666V4.94502ZM103.66 8.95113H99.654V12.9572H103.66V8.95113ZM99.654 12.9572H95.6479V16.9633H99.654V12.9572ZM111.672 16.9633H115.678V12.9572H111.672V16.9633ZM95.6479 16.9633H91.6418V20.9695H95.6479V16.9633ZM107.666 20.9695H111.672V16.9633H107.666V20.9695ZM91.6418 20.9695H87.6357V24.9756H91.6418V20.9695ZM103.66 24.9756H107.666V20.9695H103.66V24.9756ZM87.6357 24.9756H83.6296V28.9817H87.6357V24.9756ZM99.654 28.9817H103.66V24.9756H99.654V28.9817ZM83.6296 36.9939V28.9817H79.6235V41H91.6418V36.9939H83.6296ZM95.6479 32.9878H99.654V28.9817H95.6479V32.9878ZM91.6418 36.9939H95.6479V32.9878H91.6418V36.9939ZM139.729 36.9939H131.716V0.938915H127.71V4.94502H123.704V8.95113H127.71V36.9939H119.698V41H139.729V36.9939ZM119.698 8.95113V12.9572H123.704V8.95113H119.698ZM143.748 4.94502H155.766V41H159.772V4.94502H171.791V0.938915H143.748V4.94502ZM195.841 36.9939H179.816V20.9695H195.841V16.9633H179.816V4.94502H195.841V0.938915H175.81V41H195.841V36.9939ZM215.885 0.938915H211.879V8.95113H215.885V0.938915ZM211.879 8.95113H207.873V24.9756H211.879V8.95113ZM219.891 8.95113H215.885V24.9756H219.891V8.95113ZM207.873 24.9756H203.866V41H207.873V24.9756ZM215.885 24.9756H211.879V32.9878H215.885V24.9756ZM223.897 24.9756H219.891V41H223.897V24.9756ZM235.929 0.938915H231.923V41H235.929V16.9633H239.935V8.95113H235.929V0.938915ZM243.941 16.9633H247.947V41H251.953V0.938915H247.947V8.95113H243.941V16.9633ZM243.941 16.9633H239.935V24.9756H243.941V16.9633Z" fill="black"/>
</svg>
