<svg width="32" height="32" viewBox="0 0 32 32" fill="none" xmlns="http://www.w3.org/2000/svg">
<path d="M16.0001 29.3334C23.3641 29.3334 29.3334 23.3641 29.3334 16.0001C29.3334 15.3827 28.4081 15.2801 28.0894 15.8094C27.4097 16.9352 26.4828 17.8916 25.3788 18.606C24.2747 19.3205 23.0226 19.7744 21.7172 19.9333C20.4118 20.0922 19.0873 19.9519 17.8441 19.5231C16.601 19.0943 15.4717 18.3883 14.5418 17.4584C13.6119 16.5285 12.9058 15.3992 12.477 14.156C12.0483 12.9128 11.908 11.5884 12.0669 10.283C12.2258 8.97756 12.6796 7.72542 13.3941 6.6214C14.1086 5.51737 15.065 4.59042 16.1907 3.91075C16.7201 3.59075 16.6174 2.66675 16.0001 2.66675C8.63608 2.66675 2.66675 8.63608 2.66675 16.0001C2.66675 23.3641 8.63608 29.3334 16.0001 29.3334Z" fill="black"/>
</svg>
