<svg width="371" height="660" viewBox="0 0 371 660" fill="none" xmlns="http://www.w3.org/2000/svg">
<path d="M194.839 3.32193H197.507V0.654123H194.839V3.32193ZM192.171 5.98974H194.839V3.32193H192.171V5.98974ZM197.507 3.32193V5.98974H200.175V3.32193H197.507ZM189.504 5.98974V8.65755H192.171V5.98974H189.504ZM200.175 5.98974V8.65755H202.843V5.98974H200.175ZM136.121 22.6507H133.453V27.9863H136.121V22.6507ZM146.792 22.6507H144.124V27.9863H146.792V22.6507ZM144.124 30.6541V27.9863H136.121V30.6541H144.124ZM138.788 33.3219V35.9897H141.456V33.3219H138.788ZM136.121 35.9897V38.6575H138.788V35.9897H136.121ZM141.456 35.9897V38.6575H144.124V35.9897H141.456ZM136.121 38.6575H133.453V54.6644H136.121V38.6575ZM146.792 38.6575H144.124V43.9932H146.792V38.6575ZM138.788 49.3288H144.124V54.6644H146.792V46.661H138.788V49.3288ZM136.121 54.6644V57.3322H138.788V54.6644H136.121ZM141.456 54.6644V57.3322H144.124V54.6644H141.456ZM138.788 57.3322V60H141.456V57.3322H138.788ZM154.804 22.6507H152.136V27.9863H154.804V22.6507ZM165.475 22.6507H162.808V27.9863H165.475V22.6507ZM162.808 30.6541V27.9863H154.804V30.6541H162.808ZM157.472 33.3219V35.9897H160.14V33.3219H157.472ZM154.804 35.9897V38.6575H157.472V35.9897H154.804ZM160.14 35.9897V38.6575H162.808V35.9897H160.14ZM154.804 38.6575H152.136V54.6644H154.804V38.6575ZM165.475 38.6575H162.808V43.9932H165.475V38.6575ZM157.472 49.3288H162.808V54.6644H165.475V46.661H157.472V49.3288ZM154.804 54.6644V57.3322H157.472V54.6644H154.804ZM160.14 54.6644V57.3322H162.808V54.6644H160.14ZM157.472 57.3322V60H160.14V57.3322H157.472ZM173.488 22.6507H170.82V27.9863H173.488V22.6507ZM184.159 22.6507H181.491V27.9863H184.159V22.6507ZM181.491 30.6541V27.9863H173.488V30.6541H181.491ZM176.156 33.3219V35.9897H178.823V33.3219H176.156ZM173.488 35.9897V38.6575H176.156V35.9897H173.488ZM178.823 35.9897V38.6575H181.491V35.9897H178.823ZM173.488 38.6575H170.82V54.6644H173.488V38.6575ZM184.159 38.6575H181.491V43.9932H184.159V38.6575ZM176.156 49.3288H181.491V54.6644H184.159V46.661H176.156V49.3288ZM173.488 54.6644V57.3322H176.156V54.6644H173.488ZM178.823 54.6644V57.3322H181.491V54.6644H178.823ZM176.156 57.3322V60H178.823V57.3322H176.156ZM192.171 22.6507H189.504V27.9863H192.171V22.6507ZM202.843 22.6507H200.175V27.9863H202.843V22.6507ZM200.175 30.6541V27.9863H192.171V30.6541H200.175ZM194.839 33.3219V35.9897H197.507V33.3219H194.839ZM192.171 35.9897V38.6575H194.839V35.9897H192.171ZM197.507 35.9897V38.6575H200.175V35.9897H197.507ZM192.171 38.6575H189.504V54.6644H192.171V38.6575ZM202.843 38.6575H200.175V43.9932H202.843V38.6575ZM194.839 49.3288H200.175V54.6644H202.843V46.661H194.839V49.3288ZM192.171 54.6644V57.3322H194.839V54.6644H192.171ZM197.507 54.6644V57.3322H200.175V54.6644H197.507ZM194.839 57.3322V60H197.507V57.3322H194.839ZM210.855 22.6507H208.187V27.9863H210.855V22.6507ZM221.526 22.6507H218.858V27.9863H221.526V22.6507ZM218.858 30.6541V27.9863H210.855V30.6541H218.858ZM213.523 33.3219V35.9897H216.191V33.3219H213.523ZM210.855 35.9897V38.6575H213.523V35.9897H210.855ZM216.191 35.9897V38.6575H218.858V35.9897H216.191ZM210.855 38.6575H208.187V54.6644H210.855V38.6575ZM221.526 38.6575H218.858V43.9932H221.526V38.6575ZM213.523 49.3288H218.858V54.6644H221.526V46.661H213.523V49.3288ZM210.855 54.6644V57.3322H213.523V54.6644H210.855ZM216.191 54.6644V57.3322H218.858V54.6644H216.191ZM213.523 57.3322V60H216.191V57.3322H213.523ZM229.539 22.6507H226.871V27.9863H229.539V22.6507ZM240.21 22.6507H237.542V27.9863H240.21V22.6507ZM237.542 30.6541V27.9863H229.539V30.6541H237.542ZM232.206 33.3219V35.9897H234.874V33.3219H232.206ZM229.539 35.9897V38.6575H232.206V35.9897H229.539ZM234.874 35.9897V38.6575H237.542V35.9897H234.874ZM229.539 38.6575H226.871V54.6644H229.539V38.6575ZM240.21 38.6575H237.542V43.9932H240.21V38.6575ZM232.206 49.3288H237.542V54.6644H240.21V46.661H232.206V49.3288ZM229.539 54.6644V57.3322H232.206V54.6644H229.539ZM234.874 54.6644V57.3322H237.542V54.6644H234.874ZM232.206 57.3322V60H234.874V57.3322H232.206ZM248.222 22.6507H245.554V27.9863H248.222V22.6507ZM258.893 22.6507H256.226V27.9863H258.893V22.6507ZM256.226 30.6541V27.9863H248.222V30.6541H256.226ZM250.89 33.3219V35.9897H253.558V33.3219H250.89ZM248.222 35.9897V38.6575H250.89V35.9897H248.222ZM253.558 35.9897V38.6575H256.226V35.9897H253.558ZM248.222 38.6575H245.554V54.6644H248.222V38.6575ZM258.893 38.6575H256.226V43.9932H258.893V38.6575ZM250.89 49.3288H256.226V54.6644H258.893V46.661H250.89V49.3288ZM248.222 54.6644V57.3322H250.89V54.6644H248.222ZM253.558 54.6644V57.3322H256.226V54.6644H253.558ZM250.89 57.3322V60H253.558V57.3322H250.89ZM117.437 52.6507H114.769V57.9863H117.437V52.6507ZM128.108 52.6507H125.441V57.9863H128.108V52.6507ZM125.441 60.6541V57.9863H117.437V60.6541H125.441ZM120.105 63.3219V65.9897H122.773V63.3219H120.105ZM117.437 65.9897V68.6575H120.105V65.9897H117.437ZM122.773 65.9897V68.6575H125.441V65.9897H122.773ZM117.437 68.6575H114.769V84.6644H117.437V68.6575ZM128.108 68.6575H125.441V73.9932H128.108V68.6575ZM120.105 79.3288H125.441V84.6644H128.108V76.661H120.105V79.3288ZM117.437 84.6644V87.3322H120.105V84.6644H117.437ZM122.773 84.6644V87.3322H125.441V84.6644H122.773ZM120.105 87.3322V90H122.773V87.3322H120.105ZM136.121 52.6507H133.453V57.9863H136.121V52.6507ZM146.792 52.6507H144.124V57.9863H146.792V52.6507ZM144.124 60.6541V57.9863H136.121V60.6541H144.124ZM138.788 63.3219V65.9897H141.456V63.3219H138.788ZM136.121 65.9897V68.6575H138.788V65.9897H136.121ZM141.456 65.9897V68.6575H144.124V65.9897H141.456ZM136.121 68.6575H133.453V84.6644H136.121V68.6575ZM146.792 68.6575H144.124V73.9932H146.792V68.6575ZM138.788 79.3288H144.124V84.6644H146.792V76.661H138.788V79.3288ZM136.121 84.6644V87.3322H138.788V84.6644H136.121ZM141.456 84.6644V87.3322H144.124V84.6644H141.456ZM138.788 87.3322V90H141.456V87.3322H138.788ZM154.804 52.6507H152.136V57.9863H154.804V52.6507ZM165.475 52.6507H162.808V57.9863H165.475V52.6507ZM162.808 60.6541V57.9863H154.804V60.6541H162.808ZM157.472 63.3219V65.9897H160.14V63.3219H157.472ZM154.804 65.9897V68.6575H157.472V65.9897H154.804ZM160.14 65.9897V68.6575H162.808V65.9897H160.14ZM154.804 68.6575H152.136V84.6644H154.804V68.6575ZM165.475 68.6575H162.808V73.9932H165.475V68.6575ZM157.472 79.3288H162.808V84.6644H165.475V76.661H157.472V79.3288ZM154.804 84.6644V87.3322H157.472V84.6644H154.804ZM160.14 84.6644V87.3322H162.808V84.6644H160.14ZM157.472 87.3322V90H160.14V87.3322H157.472ZM186.827 79.3288V76.661H168.152V79.3288H186.827ZM224.194 79.3288V76.661H205.519V79.3288H224.194ZM229.539 52.6507H226.871V57.9863H229.539V52.6507ZM240.21 52.6507H237.542V57.9863H240.21V52.6507ZM237.542 60.6541V57.9863H229.539V60.6541H237.542ZM232.206 63.3219V65.9897H234.874V63.3219H232.206ZM229.539 65.9897V68.6575H232.206V65.9897H229.539ZM234.874 65.9897V68.6575H237.542V65.9897H234.874ZM229.539 68.6575H226.871V84.6644H229.539V68.6575ZM240.21 68.6575H237.542V73.9932H240.21V68.6575ZM232.206 79.3288H237.542V84.6644H240.21V76.661H232.206V79.3288ZM229.539 84.6644V87.3322H232.206V84.6644H229.539ZM234.874 84.6644V87.3322H237.542V84.6644H234.874ZM232.206 87.3322V90H234.874V87.3322H232.206ZM248.222 52.6507H245.554V57.9863H248.222V52.6507ZM258.893 52.6507H256.226V57.9863H258.893V52.6507ZM256.226 60.6541V57.9863H248.222V60.6541H256.226ZM250.89 63.3219V65.9897H253.558V63.3219H250.89ZM248.222 65.9897V68.6575H250.89V65.9897H248.222ZM253.558 65.9897V68.6575H256.226V65.9897H253.558ZM248.222 68.6575H245.554V84.6644H248.222V68.6575ZM258.893 68.6575H256.226V73.9932H258.893V68.6575ZM250.89 79.3288H256.226V84.6644H258.893V76.661H250.89V79.3288ZM248.222 84.6644V87.3322H250.89V84.6644H248.222ZM253.558 84.6644V87.3322H256.226V84.6644H253.558ZM250.89 87.3322V90H253.558V87.3322H250.89ZM266.906 52.6507H264.238V57.9863H266.906V52.6507ZM277.577 52.6507H274.909V57.9863H277.577V52.6507ZM274.909 60.6541V57.9863H266.906V60.6541H274.909ZM269.574 63.3219V65.9897H272.241V63.3219H269.574ZM266.906 65.9897V68.6575H269.574V65.9897H266.906ZM272.241 65.9897V68.6575H274.909V65.9897H272.241ZM266.906 68.6575H264.238V84.6644H266.906V68.6575ZM277.577 68.6575H274.909V73.9932H277.577V68.6575ZM269.574 79.3288H274.909V84.6644H277.577V76.661H269.574V79.3288ZM266.906 84.6644V87.3322H269.574V84.6644H266.906ZM272.241 84.6644V87.3322H274.909V84.6644H272.241ZM269.574 87.3322V90H272.241V87.3322H269.574ZM98.7535 82.6507H96.0857V87.9863H98.7535V82.6507ZM109.425 82.6507H106.757V87.9863H109.425V82.6507ZM106.757 90.6541V87.9863H98.7535V90.6541H106.757ZM101.421 93.3219V95.9897H104.089V93.3219H101.421ZM98.7535 95.9897V98.6575H101.421V95.9897H98.7535ZM104.089 95.9897V98.6575H106.757V95.9897H104.089ZM98.7535 98.6575H96.0857V114.664H98.7535V98.6575ZM109.425 98.6575H106.757V103.993H109.425V98.6575ZM101.421 109.329H106.757V114.664H109.425V106.661H101.421V109.329ZM98.7535 114.664V117.332H101.421V114.664H98.7535ZM104.089 114.664V117.332H106.757V114.664H104.089ZM101.421 117.332V120H104.089V117.332H101.421ZM117.437 82.6507H114.769V87.9863H117.437V82.6507ZM128.108 82.6507H125.441V87.9863H128.108V82.6507ZM125.441 90.6541V87.9863H117.437V90.6541H125.441ZM120.105 93.3219V95.9897H122.773V93.3219H120.105ZM117.437 95.9897V98.6575H120.105V95.9897H117.437ZM122.773 95.9897V98.6575H125.441V95.9897H122.773ZM117.437 98.6575H114.769V114.664H117.437V98.6575ZM128.108 98.6575H125.441V103.993H128.108V98.6575ZM120.105 109.329H125.441V114.664H128.108V106.661H120.105V109.329ZM117.437 114.664V117.332H120.105V114.664H117.437ZM122.773 114.664V117.332H125.441V114.664H122.773ZM120.105 117.332V120H122.773V117.332H120.105ZM136.121 82.6507H133.453V87.9863H136.121V82.6507ZM146.792 82.6507H144.124V87.9863H146.792V82.6507ZM144.124 90.6541V87.9863H136.121V90.6541H144.124ZM138.788 93.3219V95.9897H141.456V93.3219H138.788ZM136.121 95.9897V98.6575H138.788V95.9897H136.121ZM141.456 95.9897V98.6575H144.124V95.9897H141.456ZM136.121 98.6575H133.453V114.664H136.121V98.6575ZM146.792 98.6575H144.124V103.993H146.792V98.6575ZM138.788 109.329H144.124V114.664H146.792V106.661H138.788V109.329ZM136.121 114.664V117.332H138.788V114.664H136.121ZM141.456 114.664V117.332H144.124V114.664H141.456ZM138.788 117.332V120H141.456V117.332H138.788ZM176.156 93.3219V95.9897H178.823V93.3219H176.156ZM173.488 95.9897V98.6575H176.156V95.9897H173.488ZM178.823 95.9897V98.6575H181.491V95.9897H178.823ZM173.488 98.6575H170.82V114.664H173.488V111.997H176.156V109.329H173.488V98.6575ZM178.823 103.993H181.491V114.664H184.159V98.6575H181.491V101.325H178.823V103.993ZM178.823 103.993H176.156V109.329H178.823V103.993ZM173.488 114.664V117.332H176.156V114.664H173.488ZM178.823 114.664V117.332H181.491V114.664H178.823ZM176.156 117.332V120H178.823V117.332H176.156ZM221.526 117.332H216.191V93.3219H213.523V95.9897H210.855V98.6575H213.523V117.332H208.187V120H221.526V117.332ZM208.187 98.6575V101.325H210.855V98.6575H208.187ZM248.222 82.6507H245.554V87.9863H248.222V82.6507ZM258.893 82.6507H256.226V87.9863H258.893V82.6507ZM256.226 90.6541V87.9863H248.222V90.6541H256.226ZM250.89 93.3219V95.9897H253.558V93.3219H250.89ZM248.222 95.9897V98.6575H250.89V95.9897H248.222ZM253.558 95.9897V98.6575H256.226V95.9897H253.558ZM248.222 98.6575H245.554V114.664H248.222V98.6575ZM258.893 98.6575H256.226V103.993H258.893V98.6575ZM250.89 109.329H256.226V114.664H258.893V106.661H250.89V109.329ZM248.222 114.664V117.332H250.89V114.664H248.222ZM253.558 114.664V117.332H256.226V114.664H253.558ZM250.89 117.332V120H253.558V117.332H250.89ZM266.906 82.6507H264.238V87.9863H266.906V82.6507ZM277.577 82.6507H274.909V87.9863H277.577V82.6507ZM274.909 90.6541V87.9863H266.906V90.6541H274.909ZM269.574 93.3219V95.9897H272.241V93.3219H269.574ZM266.906 95.9897V98.6575H269.574V95.9897H266.906ZM272.241 95.9897V98.6575H274.909V95.9897H272.241ZM266.906 98.6575H264.238V114.664H266.906V98.6575ZM277.577 98.6575H274.909V103.993H277.577V98.6575ZM269.574 109.329H274.909V114.664H277.577V106.661H269.574V109.329ZM266.906 114.664V117.332H269.574V114.664H266.906ZM272.241 114.664V117.332H274.909V114.664H272.241ZM269.574 117.332V120H272.241V117.332H269.574ZM285.589 82.6507H282.921V87.9863H285.589V82.6507ZM296.261 82.6507H293.593V87.9863H296.261V82.6507ZM293.593 90.6541V87.9863H285.589V90.6541H293.593ZM288.257 93.3219V95.9897H290.925V93.3219H288.257ZM285.589 95.9897V98.6575H288.257V95.9897H285.589ZM290.925 95.9897V98.6575H293.593V95.9897H290.925ZM285.589 98.6575H282.921V114.664H285.589V98.6575ZM296.261 98.6575H293.593V103.993H296.261V98.6575ZM288.257 109.329H293.593V114.664H296.261V106.661H288.257V109.329ZM285.589 114.664V117.332H288.257V114.664H285.589ZM290.925 114.664V117.332H293.593V114.664H290.925ZM288.257 117.332V120H290.925V117.332H288.257ZM98.7535 112.651H96.0857V117.986H98.7535V112.651ZM109.425 112.651H106.757V117.986H109.425V112.651ZM106.757 120.654V117.986H98.7535V120.654H106.757ZM101.421 123.322V125.99H104.089V123.322H101.421ZM98.7535 125.99V128.658H101.421V125.99H98.7535ZM104.089 125.99V128.658H106.757V125.99H104.089ZM98.7535 128.658H96.0857V144.664H98.7535V128.658ZM109.425 128.658H106.757V133.993H109.425V128.658ZM101.421 139.329H106.757V144.664H109.425V136.661H101.421V139.329ZM98.7535 144.664V147.332H101.421V144.664H98.7535ZM104.089 144.664V147.332H106.757V144.664H104.089ZM101.421 147.332V150H104.089V147.332H101.421ZM117.437 112.651H114.769V117.986H117.437V112.651ZM128.108 112.651H125.441V117.986H128.108V112.651ZM125.441 120.654V117.986H117.437V120.654H125.441ZM120.105 123.322V125.99H122.773V123.322H120.105ZM117.437 125.99V128.658H120.105V125.99H117.437ZM122.773 125.99V128.658H125.441V125.99H122.773ZM117.437 128.658H114.769V144.664H117.437V128.658ZM128.108 128.658H125.441V133.993H128.108V128.658ZM120.105 139.329H125.441V144.664H128.108V136.661H120.105V139.329ZM117.437 144.664V147.332H120.105V144.664H117.437ZM122.773 144.664V147.332H125.441V144.664H122.773ZM120.105 147.332V150H122.773V147.332H120.105ZM144.124 123.322H141.456V128.658H144.124V123.322ZM149.46 123.322H146.792V128.658H149.46V123.322ZM144.124 128.658V131.325H141.456V128.658H138.788V131.325H133.453V133.993H136.121V136.661H130.785V139.329H133.453V144.664H136.121V139.329H138.788V144.664H141.456V139.329H146.792V136.661H144.124V133.993H149.46V131.325H146.792V128.658H144.124ZM141.456 136.661H138.788V133.993H141.456V136.661ZM130.785 150H133.453V144.664H130.785V150ZM136.121 150H138.788V144.664H136.121V150ZM154.804 123.322H152.136V128.658H154.804V123.322ZM157.472 128.658H154.804V133.993H157.472V128.658ZM160.14 133.993H157.472V139.329H160.14V133.993ZM162.808 139.329H160.14V144.664H162.808V139.329ZM165.475 144.664H162.808V150H165.475V144.664ZM192.171 123.322H189.504V131.325H192.171V123.322ZM202.843 123.322H200.175V131.325H202.843V123.322ZM192.171 131.325V133.993H189.504V136.661H194.839V131.325H192.171ZM202.843 133.993H200.175V131.325H197.507V136.661H202.843V133.993ZM189.504 141.997H194.839V150H197.507V141.997H202.843V139.329H197.507V136.661H194.839V139.329H189.504V141.997ZM240.21 123.322H237.542V128.658H240.21V123.322ZM237.542 128.658H234.874V133.993H237.542V128.658ZM234.874 133.993H232.206V139.329H234.874V133.993ZM232.206 139.329H229.539V144.664H232.206V139.329ZM229.539 144.664H226.871V150H229.539V144.664ZM256.226 123.322H253.558V128.658H256.226V123.322ZM261.561 123.322H258.893V128.658H261.561V123.322ZM256.226 128.658V131.325H253.558V128.658H250.89V131.325H245.554V133.993H248.222V136.661H242.887V139.329H245.554V144.664H248.222V139.329H250.89V144.664H253.558V139.329H258.893V136.661H256.226V133.993H261.561V131.325H258.893V128.658H256.226ZM253.558 136.661H250.89V133.993H253.558V136.661ZM242.887 150H245.554V144.664H242.887V150ZM248.222 150H250.89V144.664H248.222V150ZM266.906 112.651H264.238V117.986H266.906V112.651ZM277.577 112.651H274.909V117.986H277.577V112.651ZM274.909 120.654V117.986H266.906V120.654H274.909ZM269.574 123.322V125.99H272.241V123.322H269.574ZM266.906 125.99V128.658H269.574V125.99H266.906ZM272.241 125.99V128.658H274.909V125.99H272.241ZM266.906 128.658H264.238V144.664H266.906V128.658ZM277.577 128.658H274.909V133.993H277.577V128.658ZM269.574 139.329H274.909V144.664H277.577V136.661H269.574V139.329ZM266.906 144.664V147.332H269.574V144.664H266.906ZM272.241 144.664V147.332H274.909V144.664H272.241ZM269.574 147.332V150H272.241V147.332H269.574ZM285.589 112.651H282.921V117.986H285.589V112.651ZM296.261 112.651H293.593V117.986H296.261V112.651ZM293.593 120.654V117.986H285.589V120.654H293.593ZM288.257 123.322V125.99H290.925V123.322H288.257ZM285.589 125.99V128.658H288.257V125.99H285.589ZM290.925 125.99V128.658H293.593V125.99H290.925ZM285.589 128.658H282.921V144.664H285.589V128.658ZM296.261 128.658H293.593V133.993H296.261V128.658ZM288.257 139.329H293.593V144.664H296.261V136.661H288.257V139.329ZM285.589 144.664V147.332H288.257V144.664H285.589ZM290.925 144.664V147.332H293.593V144.664H290.925ZM288.257 147.332V150H290.925V147.332H288.257ZM98.7535 142.651H96.0857V147.986H98.7535V142.651ZM109.425 142.651H106.757V147.986H109.425V142.651ZM106.757 150.654V147.986H98.7535V150.654H106.757ZM101.421 153.322V155.99H104.089V153.322H101.421ZM98.7535 155.99V158.658H101.421V155.99H98.7535ZM104.089 155.99V158.658H106.757V155.99H104.089ZM98.7535 158.658H96.0857V174.664H98.7535V158.658ZM109.425 158.658H106.757V163.993H109.425V158.658ZM101.421 169.329H106.757V174.664H109.425V166.661H101.421V169.329ZM98.7535 174.664V177.332H101.421V174.664H98.7535ZM104.089 174.664V177.332H106.757V174.664H104.089ZM101.421 177.332V180H104.089V177.332H101.421ZM117.437 142.651H114.769V147.986H117.437V142.651ZM128.108 142.651H125.441V147.986H128.108V142.651ZM125.441 150.654V147.986H117.437V150.654H125.441ZM120.105 153.322V155.99H122.773V153.322H120.105ZM117.437 155.99V158.658H120.105V155.99H117.437ZM122.773 155.99V158.658H125.441V155.99H122.773ZM117.437 158.658H114.769V174.664H117.437V158.658ZM128.108 158.658H125.441V163.993H128.108V158.658ZM120.105 169.329H125.441V174.664H128.108V166.661H120.105V169.329ZM117.437 174.664V177.332H120.105V174.664H117.437ZM122.773 174.664V177.332H125.441V174.664H122.773ZM120.105 177.332V180H122.773V177.332H120.105ZM136.121 142.651H133.453V147.986H136.121V142.651ZM146.792 142.651H144.124V147.986H146.792V142.651ZM144.124 150.654V147.986H136.121V150.654H144.124ZM138.788 153.322V155.99H141.456V153.322H138.788ZM136.121 155.99V158.658H138.788V155.99H136.121ZM141.456 155.99V158.658H144.124V155.99H141.456ZM136.121 158.658H133.453V174.664H136.121V158.658ZM146.792 158.658H144.124V163.993H146.792V158.658ZM138.788 169.329H144.124V174.664H146.792V166.661H138.788V169.329ZM136.121 174.664V177.332H138.788V174.664H136.121ZM141.456 174.664V177.332H144.124V174.664H141.456ZM138.788 177.332V180H141.456V177.332H138.788ZM173.488 153.322H170.82V158.658H173.488V153.322ZM176.156 158.658H173.488V163.993H176.156V158.658ZM178.823 163.993H176.156V169.329H178.823V163.993ZM181.491 169.329H178.823V174.664H181.491V169.329ZM184.159 174.664H181.491V180H184.159V174.664ZM202.843 150.654V147.986H189.504V150.654H202.843ZM192.171 153.322H189.504V174.664H192.171V153.322ZM202.843 153.322H200.175V174.664H202.843V153.322ZM192.171 174.664V177.332H194.839V174.664H192.171ZM197.507 174.664V177.332H200.175V174.664H197.507ZM194.839 177.332V180H197.507V177.332H194.839ZM221.526 153.322H218.858V158.658H221.526V153.322ZM218.858 158.658H216.191V163.993H218.858V158.658ZM216.191 163.993H213.523V169.329H216.191V163.993ZM213.523 169.329H210.855V174.664H213.523V169.329ZM210.855 174.664H208.187V180H210.855V174.664ZM248.222 142.651H245.554V147.986H248.222V142.651ZM258.893 142.651H256.226V147.986H258.893V142.651ZM256.226 150.654V147.986H248.222V150.654H256.226ZM250.89 153.322V155.99H253.558V153.322H250.89ZM248.222 155.99V158.658H250.89V155.99H248.222ZM253.558 155.99V158.658H256.226V155.99H253.558ZM248.222 158.658H245.554V174.664H248.222V158.658ZM258.893 158.658H256.226V163.993H258.893V158.658ZM250.89 169.329H256.226V174.664H258.893V166.661H250.89V169.329ZM248.222 174.664V177.332H250.89V174.664H248.222ZM253.558 174.664V177.332H256.226V174.664H253.558ZM250.89 177.332V180H253.558V177.332H250.89ZM266.906 142.651H264.238V147.986H266.906V142.651ZM277.577 142.651H274.909V147.986H277.577V142.651ZM274.909 150.654V147.986H266.906V150.654H274.909ZM269.574 153.322V155.99H272.241V153.322H269.574ZM266.906 155.99V158.658H269.574V155.99H266.906ZM272.241 155.99V158.658H274.909V155.99H272.241ZM266.906 158.658H264.238V174.664H266.906V158.658ZM277.577 158.658H274.909V163.993H277.577V158.658ZM269.574 169.329H274.909V174.664H277.577V166.661H269.574V169.329ZM266.906 174.664V177.332H269.574V174.664H266.906ZM272.241 174.664V177.332H274.909V174.664H272.241ZM269.574 177.332V180H272.241V177.332H269.574ZM285.589 142.651H282.921V147.986H285.589V142.651ZM296.261 142.651H293.593V147.986H296.261V142.651ZM293.593 150.654V147.986H285.589V150.654H293.593ZM288.257 153.322V155.99H290.925V153.322H288.257ZM285.589 155.99V158.658H288.257V155.99H285.589ZM290.925 155.99V158.658H293.593V155.99H290.925ZM285.589 158.658H282.921V174.664H285.589V158.658ZM296.261 158.658H293.593V163.993H296.261V158.658ZM288.257 169.329H293.593V174.664H296.261V166.661H288.257V169.329ZM285.589 174.664V177.332H288.257V174.664H285.589ZM290.925 174.664V177.332H293.593V174.664H290.925ZM288.257 177.332V180H290.925V177.332H288.257ZM98.7535 172.651H96.0857V177.986H98.7535V172.651ZM109.425 172.651H106.757V177.986H109.425V172.651ZM106.757 180.654V177.986H98.7535V180.654H106.757ZM101.421 183.322V185.99H104.089V183.322H101.421ZM98.7535 185.99V188.658H101.421V185.99H98.7535ZM104.089 185.99V188.658H106.757V185.99H104.089ZM98.7535 188.658H96.0857V204.664H98.7535V188.658ZM109.425 188.658H106.757V193.993H109.425V188.658ZM101.421 199.329H106.757V204.664H109.425V196.661H101.421V199.329ZM98.7535 204.664V207.332H101.421V204.664H98.7535ZM104.089 204.664V207.332H106.757V204.664H104.089ZM101.421 207.332V210H104.089V207.332H101.421ZM117.437 172.651H114.769V177.986H117.437V172.651ZM128.108 172.651H125.441V177.986H128.108V172.651ZM125.441 180.654V177.986H117.437V180.654H125.441ZM120.105 183.322V185.99H122.773V183.322H120.105ZM117.437 185.99V188.658H120.105V185.99H117.437ZM122.773 185.99V188.658H125.441V185.99H122.773ZM117.437 188.658H114.769V204.664H117.437V188.658ZM128.108 188.658H125.441V193.993H128.108V188.658ZM120.105 199.329H125.441V204.664H128.108V196.661H120.105V199.329ZM117.437 204.664V207.332H120.105V204.664H117.437ZM122.773 204.664V207.332H125.441V204.664H122.773ZM120.105 207.332V210H122.773V207.332H120.105ZM136.121 172.651H133.453V177.986H136.121V172.651ZM146.792 172.651H144.124V177.986H146.792V172.651ZM144.124 180.654V177.986H136.121V180.654H144.124ZM138.788 183.322V185.99H141.456V183.322H138.788ZM136.121 185.99V188.658H138.788V185.99H136.121ZM141.456 185.99V188.658H144.124V185.99H141.456ZM136.121 188.658H133.453V204.664H136.121V188.658ZM146.792 188.658H144.124V193.993H146.792V188.658ZM138.788 199.329H144.124V204.664H146.792V196.661H138.788V199.329ZM136.121 204.664V207.332H138.788V204.664H136.121ZM141.456 204.664V207.332H144.124V204.664H141.456ZM138.788 207.332V210H141.456V207.332H138.788ZM181.491 188.658V185.99H173.488V188.658H181.491ZM170.82 188.658V191.325H173.488V188.658H170.82ZM181.491 188.658V191.325H184.159V188.658H181.491ZM170.82 191.325H168.152V204.664H170.82V191.325ZM176.156 191.325V193.993H178.823V191.325H176.156ZM186.827 191.325H184.159V204.664H186.827V191.325ZM176.156 193.993H173.488V201.997H176.156V193.993ZM178.823 193.993V196.661H181.491V193.993H178.823ZM178.823 199.329V201.997H181.491V199.329H178.823ZM176.156 201.997V204.664H178.823V201.997H176.156ZM170.82 204.664V207.332H173.488V204.664H170.82ZM181.491 204.664V207.332H184.159V204.664H181.491ZM181.491 210V207.332H173.488V210H181.491ZM200.175 188.658V185.99H192.171V188.658H200.175ZM189.504 188.658V191.325H192.171V188.658H189.504ZM200.175 188.658V191.325H202.843V188.658H200.175ZM189.504 191.325H186.836V204.664H189.504V191.325ZM194.839 191.325V193.993H197.507V191.325H194.839ZM205.51 191.325H202.843V204.664H205.51V191.325ZM194.839 193.993H192.171V201.997H194.839V193.993ZM197.507 193.993V196.661H200.175V193.993H197.507ZM197.507 199.329V201.997H200.175V199.329H197.507ZM194.839 201.997V204.664H197.507V201.997H194.839ZM189.504 204.664V207.332H192.171V204.664H189.504ZM200.175 204.664V207.332H202.843V204.664H200.175ZM200.175 210V207.332H192.171V210H200.175ZM218.858 188.658V185.99H210.855V188.658H218.858ZM208.187 188.658V191.325H210.855V188.658H208.187ZM218.858 188.658V191.325H221.526V188.658H218.858ZM208.187 191.325H205.519V204.664H208.187V191.325ZM213.523 191.325V193.993H216.191V191.325H213.523ZM224.194 191.325H221.526V204.664H224.194V191.325ZM213.523 193.993H210.855V201.997H213.523V193.993ZM216.191 193.993V196.661H218.858V193.993H216.191ZM216.191 199.329V201.997H218.858V199.329H216.191ZM213.523 201.997V204.664H216.191V201.997H213.523ZM208.187 204.664V207.332H210.855V204.664H208.187ZM218.858 204.664V207.332H221.526V204.664H218.858ZM218.858 210V207.332H210.855V210H218.858ZM248.222 172.651H245.554V177.986H248.222V172.651ZM258.893 172.651H256.226V177.986H258.893V172.651ZM256.226 180.654V177.986H248.222V180.654H256.226ZM250.89 183.322V185.99H253.558V183.322H250.89ZM248.222 185.99V188.658H250.89V185.99H248.222ZM253.558 185.99V188.658H256.226V185.99H253.558ZM248.222 188.658H245.554V204.664H248.222V188.658ZM258.893 188.658H256.226V193.993H258.893V188.658ZM250.89 199.329H256.226V204.664H258.893V196.661H250.89V199.329ZM248.222 204.664V207.332H250.89V204.664H248.222ZM253.558 204.664V207.332H256.226V204.664H253.558ZM250.89 207.332V210H253.558V207.332H250.89ZM266.906 172.651H264.238V177.986H266.906V172.651ZM277.577 172.651H274.909V177.986H277.577V172.651ZM274.909 180.654V177.986H266.906V180.654H274.909ZM269.574 183.322V185.99H272.241V183.322H269.574ZM266.906 185.99V188.658H269.574V185.99H266.906ZM272.241 185.99V188.658H274.909V185.99H272.241ZM266.906 188.658H264.238V204.664H266.906V188.658ZM277.577 188.658H274.909V193.993H277.577V188.658ZM269.574 199.329H274.909V204.664H277.577V196.661H269.574V199.329ZM266.906 204.664V207.332H269.574V204.664H266.906ZM272.241 204.664V207.332H274.909V204.664H272.241ZM269.574 207.332V210H272.241V207.332H269.574ZM285.589 172.651H282.921V177.986H285.589V172.651ZM296.261 172.651H293.593V177.986H296.261V172.651ZM293.593 180.654V177.986H285.589V180.654H293.593ZM288.257 183.322V185.99H290.925V183.322H288.257ZM285.589 185.99V188.658H288.257V185.99H285.589ZM290.925 185.99V188.658H293.593V185.99H290.925ZM285.589 188.658H282.921V204.664H285.589V188.658ZM296.261 188.658H293.593V193.993H296.261V188.658ZM288.257 199.329H293.593V204.664H296.261V196.661H288.257V199.329ZM285.589 204.664V207.332H288.257V204.664H285.589ZM290.925 204.664V207.332H293.593V204.664H290.925ZM288.257 207.332V210H290.925V207.332H288.257ZM130.776 242.668V240H112.101V242.668H130.776ZM149.46 242.668V240H130.785V242.668H149.46ZM168.143 242.668V240H149.469V242.668H168.143ZM181.491 218.658V215.99H173.488V218.658H181.491ZM170.82 218.658V221.325H173.488V218.658H170.82ZM181.491 218.658V221.325H184.159V218.658H181.491ZM170.82 221.325H168.152V234.664H170.82V221.325ZM176.156 221.325V223.993H178.823V221.325H176.156ZM186.827 221.325H184.159V234.664H186.827V221.325ZM176.156 223.993H173.488V231.997H176.156V223.993ZM178.823 223.993V226.661H181.491V223.993H178.823ZM178.823 229.329V231.997H181.491V229.329H178.823ZM176.156 231.997V234.664H178.823V231.997H176.156ZM170.82 234.664V237.332H173.488V234.664H170.82ZM181.491 234.664V237.332H184.159V234.664H181.491ZM181.491 240V237.332H173.488V240H181.491ZM200.175 218.658V215.99H192.171V218.658H200.175ZM189.504 218.658V221.325H192.171V218.658H189.504ZM200.175 218.658V221.325H202.843V218.658H200.175ZM189.504 221.325H186.836V234.664H189.504V221.325ZM194.839 221.325V223.993H197.507V221.325H194.839ZM205.51 221.325H202.843V234.664H205.51V221.325ZM194.839 223.993H192.171V231.997H194.839V223.993ZM197.507 223.993V226.661H200.175V223.993H197.507ZM197.507 229.329V231.997H200.175V229.329H197.507ZM194.839 231.997V234.664H197.507V231.997H194.839ZM189.504 234.664V237.332H192.171V234.664H189.504ZM200.175 234.664V237.332H202.843V234.664H200.175ZM200.175 240V237.332H192.171V240H200.175ZM218.858 218.658V215.99H210.855V218.658H218.858ZM208.187 218.658V221.325H210.855V218.658H208.187ZM218.858 218.658V221.325H221.526V218.658H218.858ZM208.187 221.325H205.519V234.664H208.187V221.325ZM213.523 221.325V223.993H216.191V221.325H213.523ZM224.194 221.325H221.526V234.664H224.194V221.325ZM213.523 223.993H210.855V231.997H213.523V223.993ZM216.191 223.993V226.661H218.858V223.993H216.191ZM216.191 229.329V231.997H218.858V229.329H216.191ZM213.523 231.997V234.664H216.191V231.997H213.523ZM208.187 234.664V237.332H210.855V234.664H208.187ZM218.858 234.664V237.332H221.526V234.664H218.858ZM218.858 240V237.332H210.855V240H218.858ZM242.878 242.668V240H224.203V242.668H242.878ZM261.561 242.668V240H242.887V242.668H261.561ZM280.245 242.668V240H261.57V242.668H280.245ZM109.425 243.322H106.757V248.658H109.425V243.322ZM106.757 248.658H104.089V253.993H106.757V248.658ZM104.089 253.993H101.421V259.329H104.089V253.993ZM101.421 259.329H98.7535V264.664H101.421V259.329ZM98.7535 264.664H96.0857V270H98.7535V264.664ZM197.507 240.654H194.839V272.668H197.507V240.654ZM285.589 243.322H282.921V248.658H285.589V243.322ZM288.257 248.658H285.589V253.993H288.257V248.658ZM290.925 253.993H288.257V259.329H290.925V253.993ZM293.593 259.329H290.925V264.664H293.593V259.329ZM296.261 264.664H293.593V270H296.261V264.664ZM88.0734 273.322V275.99H90.7412V273.322H88.0734ZM85.4055 275.99V278.658H88.0734V275.99H85.4055ZM82.7377 278.658V281.325H85.4055V278.658H82.7377ZM82.7377 281.325H80.0699V291.997H82.7377V281.325ZM82.7377 291.997V294.664H85.4055V291.997H82.7377ZM85.4055 294.664V297.332H88.0734V294.664H85.4055ZM88.0734 297.332V300H90.7412V297.332H88.0734ZM112.093 302.668V300H93.4179V302.668H112.093ZM130.776 302.668V300H112.101V302.668H130.776ZM149.46 302.668V300H130.785V302.668H149.46ZM165.475 273.322H162.808V278.658H165.475V273.322ZM162.808 278.658H160.14V283.993H162.808V278.658ZM160.14 283.993H157.472V289.329H160.14V283.993ZM157.472 289.329H154.804V294.664H157.472V289.329ZM154.804 294.664H152.136V300H154.804V294.664ZM184.159 270.654V267.986H170.82V270.654H184.159ZM184.159 297.332H173.488V286.661H184.159V283.993H173.488V275.99H184.159V273.322H170.82V300H184.159V297.332ZM197.507 270.654H194.839V302.668H197.507V270.654ZM304.273 273.322H301.605V278.658H304.273V273.322ZM306.941 278.658H304.273V283.993H306.941V278.658ZM309.609 283.993H306.941V289.329H309.609V283.993ZM312.276 289.329H309.609V294.664H312.276V289.329ZM314.944 294.664H312.276V300H314.944V294.664ZM154.804 303.322H152.136V308.658H154.804V303.322ZM157.472 308.658H154.804V313.993H157.472V308.658ZM160.14 313.993H157.472V319.329H160.14V313.993ZM162.808 319.329H160.14V324.664H162.808V319.329ZM165.475 324.664H162.808V330H165.475V324.664ZM184.159 300.654V297.986H170.82V300.654H184.159ZM184.159 327.332H173.488V316.661H184.159V313.993H173.488V305.99H184.159V303.322H170.82V330H184.159V327.332ZM197.507 300.654H194.839V332.668H197.507V300.654ZM309.609 300.654H306.941V332.668H309.609V300.654ZM197.507 330.654H194.839V362.668H197.507V330.654ZM296.261 333.322H293.593V338.658H296.261V333.322ZM293.593 338.658H290.925V343.993H293.593V338.658ZM290.925 343.993H288.257V349.329H290.925V343.993ZM288.257 349.329H285.589V354.664H288.257V349.329ZM285.589 354.664H282.921V360H285.589V354.664ZM184.159 363.322H181.491V368.658H184.159V363.322ZM181.491 368.658H178.823V373.993H181.491V368.658ZM178.823 373.993H176.156V379.329H178.823V373.993ZM176.156 379.329H173.488V384.664H176.156V379.329ZM173.488 384.664H170.82V390H173.488V384.664ZM210.855 363.322H208.187V368.658H210.855V363.322ZM213.523 368.658H210.855V373.993H213.523V368.658ZM216.191 373.993H213.523V379.329H216.191V373.993ZM218.858 379.329H216.191V384.664H218.858V379.329ZM221.526 384.664H218.858V390H221.526V384.664ZM274.909 363.322V365.99H277.577V363.322H274.909ZM272.241 365.99V368.658H274.909V365.99H272.241ZM269.574 368.658V371.325H272.241V368.658H269.574ZM269.574 371.325H266.906V381.997H269.574V371.325ZM269.574 381.997V384.664H272.241V381.997H269.574ZM272.241 384.664V387.332H274.909V384.664H272.241ZM274.909 387.332V390H277.577V387.332H274.909ZM298.928 392.668V390H280.254V392.668H298.928ZM317.612 392.668V390H298.937V392.668H317.612ZM336.296 392.668V390H317.621V392.668H336.296ZM352.311 363.322H349.643V368.658H352.311V363.322ZM349.643 368.658H346.976V373.993H349.643V368.658ZM346.976 373.993H344.308V379.329H346.976V373.993ZM344.308 379.329H341.64V384.664H344.308V379.329ZM341.64 384.664H338.972V390H341.64V384.664ZM370.995 360.654V357.986H357.656V360.654H370.995ZM370.995 387.332H360.324V376.661H370.995V373.993H360.324V365.99H370.995V363.322H357.656V390H370.995V387.332ZM165.475 393.322H162.808V398.658H165.475V393.322ZM162.808 398.658H160.14V403.993H162.808V398.658ZM160.14 403.993H157.472V409.329H160.14V403.993ZM157.472 409.329H154.804V414.664H157.472V409.329ZM154.804 414.664H152.136V420H154.804V414.664ZM229.539 393.322H226.871V398.658H229.539V393.322ZM232.206 398.658H229.539V403.993H232.206V398.658ZM234.874 403.993H232.206V409.329H234.874V403.993ZM237.542 409.329H234.874V414.664H237.542V409.329ZM240.21 414.664H237.542V420H240.21V414.664ZM341.64 393.322H338.972V398.658H341.64V393.322ZM344.308 398.658H341.64V403.993H344.308V398.658ZM346.976 403.993H344.308V409.329H346.976V403.993ZM349.643 409.329H346.976V414.664H349.643V409.329ZM352.311 414.664H349.643V420H352.311V414.664ZM370.995 390.654V387.986H357.656V390.654H370.995ZM370.995 417.332H360.324V406.661H370.995V403.993H360.324V395.99H370.995V393.322H357.656V420H370.995V417.332ZM146.792 423.322H144.124V428.658H146.792V423.322ZM144.124 428.658H141.456V433.993H144.124V428.658ZM141.456 433.993H138.788V439.329H141.456V433.993ZM138.788 439.329H136.121V444.664H138.788V439.329ZM136.121 444.664H133.453V450H136.121V444.664ZM248.222 423.322H245.554V428.658H248.222V423.322ZM250.89 428.658H248.222V433.993H250.89V428.658ZM253.558 433.993H250.89V439.329H253.558V433.993ZM256.226 439.329H253.558V444.664H256.226V439.329ZM258.893 444.664H256.226V450H258.893V444.664ZM128.108 453.322H125.441V458.658H128.108V453.322ZM125.441 458.658H122.773V463.993H125.441V458.658ZM122.773 463.993H120.105V469.329H122.773V463.993ZM120.105 469.329H117.437V474.664H120.105V469.329ZM117.437 474.664H114.769V480H117.437V474.664ZM149.46 482.668V480H130.785V482.668H149.46ZM168.143 482.668V480H149.469V482.668H168.143ZM186.827 482.668V480H168.152V482.668H186.827ZM205.51 482.668V480H186.836V482.668H205.51ZM224.194 482.668V480H205.519V482.668H224.194ZM242.878 482.668V480H224.203V482.668H242.878ZM261.561 482.668V480H242.887V482.668H261.561ZM266.906 453.322H264.238V458.658H266.906V453.322ZM269.574 458.658H266.906V463.993H269.574V458.658ZM272.241 463.993H269.574V469.329H272.241V463.993ZM274.909 469.329H272.241V474.664H274.909V469.329ZM277.577 474.664H274.909V480H277.577V474.664ZM184.159 483.322H181.491V488.658H184.159V483.322ZM181.491 488.658H178.823V493.993H181.491V488.658ZM178.823 493.993H176.156V499.329H178.823V493.993ZM176.156 499.329H173.488V504.664H176.156V499.329ZM173.488 504.664H170.82V510H173.488V504.664ZM216.191 480.654H213.523V512.668H216.191V480.654ZM248.222 483.322H245.554V488.658H248.222V483.322ZM250.89 488.658H248.222V493.993H250.89V488.658ZM253.558 493.993H250.89V499.329H253.558V493.993ZM256.226 499.329H253.558V504.664H256.226V499.329ZM258.893 504.664H256.226V510H258.893V504.664ZM165.475 513.322H162.808V518.658H165.475V513.322ZM162.808 518.658H160.14V523.993H162.808V518.658ZM160.14 523.993H157.472V529.329H160.14V523.993ZM157.472 529.329H154.804V534.664H157.472V529.329ZM154.804 534.664H152.136V540H154.804V534.664ZM216.191 510.654H213.523V542.668H216.191V510.654ZM266.906 513.322H264.238V518.658H266.906V513.322ZM269.574 518.658H266.906V523.993H269.574V518.658ZM272.241 523.993H269.574V529.329H272.241V523.993ZM274.909 529.329H272.241V534.664H274.909V529.329ZM277.577 534.664H274.909V540H277.577V534.664ZM146.792 543.322H144.124V548.658H146.792V543.322ZM144.124 548.658H141.456V553.993H144.124V548.658ZM141.456 553.993H138.788V559.329H141.456V553.993ZM138.788 559.329H136.121V564.664H138.788V559.329ZM136.121 564.664H133.453V570H136.121V564.664ZM216.191 540.654H213.523V572.668H216.191V540.654ZM288.257 545.99H282.921V548.658H288.257V545.99ZM293.593 548.658H288.257V551.325H293.593V548.658ZM298.928 551.325H293.593V553.993H298.928V551.325ZM288.257 553.993V556.661H293.593V553.993H288.257ZM282.921 556.661V559.329H288.257V556.661H282.921ZM298.928 564.664H282.921V567.332H298.928V564.664ZM128.108 573.322H125.441V578.658H128.108V573.322ZM125.441 578.658H122.773V583.993H125.441V578.658ZM122.773 583.993H120.105V589.329H122.773V583.993ZM120.105 589.329H117.437V594.664H120.105V589.329ZM117.437 594.664H114.769V600H117.437V594.664ZM216.191 570.654H213.523V602.668H216.191V570.654ZM296.261 573.322H293.593V578.658H296.261V573.322ZM293.593 578.658H290.925V583.993H293.593V578.658ZM290.925 583.993H288.257V589.329H290.925V583.993ZM288.257 589.329H285.589V594.664H288.257V589.329ZM285.589 594.664H282.921V600H285.589V594.664ZM10.6712 605.99V603.322H8.00342V605.99H5.33561V608.658H8.00342V627.332H10.6712V608.658H13.339V605.99H10.6712ZM2.66781 611.325H5.33561V608.658H2.66781V611.325ZM13.339 608.658V611.325H16.0068V608.658H13.339ZM0 613.993H2.66781V611.325H0V613.993ZM16.0068 611.325V613.993H18.6746V611.325H16.0068ZM109.425 603.322H106.757V608.658H109.425V603.322ZM106.757 608.658H104.089V613.993H106.757V608.658ZM104.089 613.993H101.421V619.329H104.089V613.993ZM101.421 619.329H98.7535V624.664H101.421V619.329ZM98.7535 624.664H96.0857V630H98.7535V624.664ZM141.456 605.99V603.322H138.788V605.99H136.121V608.658H138.788V627.332H141.456V608.658H144.124V605.99H141.456ZM133.453 611.325H136.121V608.658H133.453V611.325ZM144.124 608.658V611.325H146.792V608.658H144.124ZM130.785 613.993H133.453V611.325H130.785V613.993ZM146.792 611.325V613.993H149.46V611.325H146.792ZM216.191 600.654H213.523V632.668H216.191V600.654ZM277.577 603.322H274.909V608.658H277.577V603.322ZM274.909 608.658H272.241V613.993H274.909V608.658ZM272.241 613.993H269.574V619.329H272.241V613.993ZM269.574 619.329H266.906V624.664H269.574V619.329ZM266.906 624.664H264.238V630H266.906V624.664ZM328.292 605.99V603.322H325.624V605.99H322.956V608.658H325.624V627.332H328.292V608.658H330.96V605.99H328.292ZM320.289 611.325H322.956V608.658H320.289V611.325ZM330.96 608.658V611.325H333.628V608.658H330.96ZM317.621 613.993H320.289V611.325H317.621V613.993ZM333.628 611.325V613.993H336.296V611.325H333.628ZM10.6712 625.319H13.339V622.651H10.6712V625.319ZM8.00342 627.986H10.6712V625.319H8.00342V627.986ZM5.33561 630.654H8.00342V627.986H5.33561V630.654ZM5.33561 633.322H2.66781V649.329H5.33561V633.322ZM10.6712 633.322H8.00342V649.329H10.6712V633.322ZM16.0068 633.322H13.339V649.329H16.0068V633.322ZM8.00342 649.329H5.33561V660H8.00342V649.329ZM13.339 649.329H10.6712V660H13.339V649.329ZM29.3548 625.319H32.0226V622.651H29.3548V625.319ZM26.687 627.986H29.3548V625.319H26.687V627.986ZM24.0192 630.654H26.687V627.986H24.0192V630.654ZM24.0192 633.322H21.3514V649.329H24.0192V633.322ZM29.3548 633.322H26.687V649.329H29.3548V633.322ZM34.6904 633.322H32.0226V649.329H34.6904V633.322ZM26.687 649.329H24.0192V660H26.687V649.329ZM32.0226 649.329H29.3548V660H32.0226V649.329ZM48.0384 625.319H50.7062V622.651H48.0384V625.319ZM45.3706 627.986H48.0384V625.319H45.3706V627.986ZM42.7028 630.654H45.3706V627.986H42.7028V630.654ZM42.7028 633.322H40.035V649.329H42.7028V633.322ZM48.0384 633.322H45.3706V649.329H48.0384V633.322ZM53.374 633.322H50.7062V649.329H53.374V633.322ZM45.3706 649.329H42.7028V660H45.3706V649.329ZM50.7062 649.329H48.0384V660H50.7062V649.329ZM66.722 625.319H69.3898V622.651H66.722V625.319ZM64.0542 627.986H66.722V625.319H64.0542V627.986ZM61.3864 630.654H64.0542V627.986H61.3864V630.654ZM61.3864 633.322H58.7185V649.329H61.3864V633.322ZM66.722 633.322H64.0542V649.329H66.722V633.322ZM72.0576 633.322H69.3898V649.329H72.0576V633.322ZM64.0542 649.329H61.3864V660H64.0542V649.329ZM69.3898 649.329H66.722V660H69.3898V649.329ZM85.4055 625.319H88.0734V622.651H85.4055V625.319ZM82.7377 627.986H85.4055V625.319H82.7377V627.986ZM80.0699 630.654H82.7377V627.986H80.0699V630.654ZM80.0699 633.322H77.4021V649.329H80.0699V633.322ZM85.4055 633.322H82.7377V649.329H85.4055V633.322ZM90.7412 633.322H88.0734V649.329H90.7412V633.322ZM82.7377 649.329H80.0699V660H82.7377V649.329ZM88.0734 649.329H85.4055V660H88.0734V649.329ZM141.456 625.319H144.124V622.651H141.456V625.319ZM138.788 627.986H141.456V625.319H138.788V627.986ZM136.121 630.654H138.788V627.986H136.121V630.654ZM136.121 633.322H133.453V649.329H136.121V633.322ZM141.456 633.322H138.788V649.329H141.456V633.322ZM146.792 633.322H144.124V649.329H146.792V633.322ZM138.788 649.329H136.121V660H138.788V649.329ZM144.124 649.329H141.456V660H144.124V649.329ZM160.14 625.319H162.808V622.651H160.14V625.319ZM157.472 627.986H160.14V625.319H157.472V627.986ZM154.804 630.654H157.472V627.986H154.804V630.654ZM154.804 633.322H152.136V649.329H154.804V633.322ZM160.14 633.322H157.472V649.329H160.14V633.322ZM165.475 633.322H162.808V649.329H165.475V633.322ZM157.472 649.329H154.804V660H157.472V649.329ZM162.808 649.329H160.14V660H162.808V649.329ZM178.823 625.319H181.491V622.651H178.823V625.319ZM176.156 627.986H178.823V625.319H176.156V627.986ZM173.488 630.654H176.156V627.986H173.488V630.654ZM173.488 633.322H170.82V649.329H173.488V633.322ZM178.823 633.322H176.156V649.329H178.823V633.322ZM184.159 633.322H181.491V649.329H184.159V633.322ZM176.156 649.329H173.488V660H176.156V649.329ZM181.491 649.329H178.823V660H181.491V649.329ZM197.507 625.319H200.175V622.651H197.507V625.319ZM194.839 627.986H197.507V625.319H194.839V627.986ZM192.171 630.654H194.839V627.986H192.171V630.654ZM192.171 633.322H189.504V649.329H192.171V633.322ZM197.507 633.322H194.839V649.329H197.507V633.322ZM202.843 633.322H200.175V649.329H202.843V633.322ZM194.839 649.329H192.171V660H194.839V649.329ZM200.175 649.329H197.507V660H200.175V649.329ZM216.191 625.319H218.858V622.651H216.191V625.319ZM213.523 627.986H216.191V625.319H213.523V627.986ZM210.855 630.654H213.523V627.986H210.855V630.654ZM210.855 633.322H208.187V649.329H210.855V633.322ZM216.191 633.322H213.523V649.329H216.191V633.322ZM221.526 633.322H218.858V649.329H221.526V633.322ZM213.523 649.329H210.855V660H213.523V649.329ZM218.858 649.329H216.191V660H218.858V649.329ZM253.558 625.319H256.226V622.651H253.558V625.319ZM250.89 627.986H253.558V625.319H250.89V627.986ZM248.222 630.654H250.89V627.986H248.222V630.654ZM248.222 633.322H245.554V649.329H248.222V633.322ZM253.558 633.322H250.89V649.329H253.558V633.322ZM258.893 633.322H256.226V649.329H258.893V633.322ZM250.89 649.329H248.222V660H250.89V649.329ZM256.226 649.329H253.558V660H256.226V649.329ZM272.241 625.319H274.909V622.651H272.241V625.319ZM269.574 627.986H272.241V625.319H269.574V627.986ZM266.906 630.654H269.574V627.986H266.906V630.654ZM266.906 633.322H264.238V649.329H266.906V633.322ZM272.241 633.322H269.574V649.329H272.241V633.322ZM277.577 633.322H274.909V649.329H277.577V633.322ZM269.574 649.329H266.906V660H269.574V649.329ZM274.909 649.329H272.241V660H274.909V649.329ZM290.925 625.319H293.593V622.651H290.925V625.319ZM288.257 627.986H290.925V625.319H288.257V627.986ZM285.589 630.654H288.257V627.986H285.589V630.654ZM285.589 633.322H282.921V649.329H285.589V633.322ZM290.925 633.322H288.257V649.329H290.925V633.322ZM296.261 633.322H293.593V649.329H296.261V633.322ZM288.257 649.329H285.589V660H288.257V649.329ZM293.593 649.329H290.925V660H293.593V649.329ZM309.609 625.319H312.276V622.651H309.609V625.319ZM306.941 627.986H309.609V625.319H306.941V627.986ZM304.273 630.654H306.941V627.986H304.273V630.654ZM304.273 633.322H301.605V649.329H304.273V633.322ZM309.609 633.322H306.941V649.329H309.609V633.322ZM314.944 633.322H312.276V649.329H314.944V633.322ZM306.941 649.329H304.273V660H306.941V649.329ZM312.276 649.329H309.609V660H312.276V649.329ZM328.292 625.319H330.96V622.651H328.292V625.319ZM325.624 627.986H328.292V625.319H325.624V627.986ZM322.956 630.654H325.624V627.986H322.956V630.654ZM322.956 633.322H320.289V649.329H322.956V633.322ZM328.292 633.322H325.624V649.329H328.292V633.322ZM333.628 633.322H330.96V649.329H333.628V633.322ZM325.624 649.329H322.956V660H325.624V649.329ZM330.96 649.329H328.292V660H330.96V649.329Z" fill="#24FFDE"/>
</svg>
