<svg width="572" height="477" viewBox="0 0 572 477" fill="none" xmlns="http://www.w3.org/2000/svg">
<path d="M27.0226 2.98974V0.32193H19.0192V2.98974H27.0226ZM16.3514 2.98974V5.65755H19.0192V2.98974H16.3514ZM27.0226 2.98974V5.65755H29.6904V2.98974H27.0226ZM16.3514 5.65755H13.6836V18.9966H16.3514V5.65755ZM21.687 5.65755V8.32535H24.3548V5.65755H21.687ZM32.3582 5.65755H29.6904V18.9966H32.3582V5.65755ZM21.687 8.32535H19.0192V18.9966H21.687V13.661H24.3548V10.9932H21.687V8.32535ZM24.3548 8.32535V10.9932H27.0226V8.32535H24.3548ZM27.0226 13.661H24.3548V18.9966H27.0226V13.661ZM16.3514 18.9966V21.6644H19.0192V18.9966H16.3514ZM27.0226 18.9966V21.6644H29.6904V18.9966H27.0226ZM27.0226 24.3322V21.6644H19.0192V24.3322H27.0226ZM45.7062 2.98974V0.32193H37.7028V2.98974H45.7062ZM35.035 2.98974V5.65755H37.7028V2.98974H35.035ZM45.7062 2.98974V5.65755H48.374V2.98974H45.7062ZM35.035 5.65755H32.3672V18.9966H35.035V5.65755ZM40.3706 5.65755V8.32535H43.0384V5.65755H40.3706ZM51.0418 5.65755H48.374V18.9966H51.0418V5.65755ZM40.3706 8.32535H37.7028V18.9966H40.3706V13.661H43.0384V10.9932H40.3706V8.32535ZM43.0384 8.32535V10.9932H45.7062V8.32535H43.0384ZM45.7062 13.661H43.0384V18.9966H45.7062V13.661ZM35.035 18.9966V21.6644H37.7028V18.9966H35.035ZM45.7062 18.9966V21.6644H48.374V18.9966H45.7062ZM45.7062 24.3322V21.6644H37.7028V24.3322H45.7062ZM64.3898 2.98974V0.32193H56.3864V2.98974H64.3898ZM53.7185 2.98974V5.65755H56.3864V2.98974H53.7185ZM64.3898 2.98974V5.65755H67.0576V2.98974H64.3898ZM53.7185 5.65755H51.0507V18.9966H53.7185V5.65755ZM59.0542 5.65755V8.32535H61.722V5.65755H59.0542ZM69.7254 5.65755H67.0576V18.9966H69.7254V5.65755ZM59.0542 8.32535H56.3864V18.9966H59.0542V13.661H61.722V10.9932H59.0542V8.32535ZM61.722 8.32535V10.9932H64.3898V8.32535H61.722ZM64.3898 13.661H61.722V18.9966H64.3898V13.661ZM53.7185 18.9966V21.6644H56.3864V18.9966H53.7185ZM64.3898 18.9966V21.6644H67.0576V18.9966H64.3898ZM64.3898 24.3322V21.6644H56.3864V24.3322H64.3898ZM269.909 2.98974V0.32193H261.906V2.98974H269.909ZM259.238 2.98974V5.65755H261.906V2.98974H259.238ZM269.909 2.98974V5.65755H272.577V2.98974H269.909ZM259.238 5.65755H256.57V18.9966H259.238V5.65755ZM264.574 5.65755V8.32535H267.241V5.65755H264.574ZM275.245 5.65755H272.577V18.9966H275.245V5.65755ZM264.574 8.32535H261.906V18.9966H264.574V13.661H267.241V10.9932H264.574V8.32535ZM267.241 8.32535V10.9932H269.909V8.32535H267.241ZM269.909 13.661H267.241V18.9966H269.909V13.661ZM259.238 18.9966V21.6644H261.906V18.9966H259.238ZM269.909 18.9966V21.6644H272.577V18.9966H269.909ZM269.909 24.3322V21.6644H261.906V24.3322H269.909ZM288.593 2.98974V0.32193H280.589V2.98974H288.593ZM277.921 2.98974V5.65755H280.589V2.98974H277.921ZM288.593 2.98974V5.65755H291.261V2.98974H288.593ZM277.921 5.65755H275.254V18.9966H277.921V5.65755ZM283.257 5.65755V8.32535H285.925V5.65755H283.257ZM293.928 5.65755H291.261V18.9966H293.928V5.65755ZM283.257 8.32535H280.589V18.9966H283.257V13.661H285.925V10.9932H283.257V8.32535ZM285.925 8.32535V10.9932H288.593V8.32535H285.925ZM288.593 13.661H285.925V18.9966H288.593V13.661ZM277.921 18.9966V21.6644H280.589V18.9966H277.921ZM288.593 18.9966V21.6644H291.261V18.9966H288.593ZM288.593 24.3322V21.6644H280.589V24.3322H288.593ZM307.276 2.98974V0.32193H299.273V2.98974H307.276ZM296.605 2.98974V5.65755H299.273V2.98974H296.605ZM307.276 2.98974V5.65755H309.944V2.98974H307.276ZM296.605 5.65755H293.937V18.9966H296.605V5.65755ZM301.941 5.65755V8.32535H304.609V5.65755H301.941ZM312.612 5.65755H309.944V18.9966H312.612V5.65755ZM301.941 8.32535H299.273V18.9966H301.941V13.661H304.609V10.9932H301.941V8.32535ZM304.609 8.32535V10.9932H307.276V8.32535H304.609ZM307.276 13.661H304.609V18.9966H307.276V13.661ZM296.605 18.9966V21.6644H299.273V18.9966H296.605ZM307.276 18.9966V21.6644H309.944V18.9966H307.276ZM307.276 24.3322V21.6644H299.273V24.3322H307.276ZM29.6904 54.3322H24.3548V30.3219H21.687V32.9897H19.0192V35.6575H21.687V54.3322H16.3514V57H29.6904V54.3322ZM16.3514 35.6575V38.3254H19.0192V35.6575H16.3514ZM48.374 54.3322H43.0384V30.3219H40.3706V32.9897H37.7028V35.6575H40.3706V54.3322H35.035V57H48.374V54.3322ZM35.035 35.6575V38.3254H37.7028V35.6575H35.035ZM67.0576 54.3322H61.722V30.3219H59.0542V32.9897H56.3864V35.6575H59.0542V54.3322H53.7185V57H67.0576V54.3322ZM53.7185 35.6575V38.3254H56.3864V35.6575H53.7185ZM83.0734 32.9897V30.3219H75.0699V32.9897H83.0734ZM72.4021 32.9897V35.6575H75.0699V32.9897H72.4021ZM83.0734 32.9897V35.6575H85.7412V32.9897H83.0734ZM72.4021 35.6575H69.7343V48.9966H72.4021V35.6575ZM77.7377 35.6575V38.3254H80.4055V35.6575H77.7377ZM88.409 35.6575H85.7412V48.9966H88.409V35.6575ZM77.7377 38.3254H75.0699V48.9966H77.7377V43.661H80.4055V40.9932H77.7377V38.3254ZM80.4055 38.3254V40.9932H83.0734V38.3254H80.4055ZM83.0734 43.661H80.4055V48.9966H83.0734V43.661ZM72.4021 48.9966V51.6644H75.0699V48.9966H72.4021ZM83.0734 48.9966V51.6644H85.7412V48.9966H83.0734ZM83.0734 54.3322V51.6644H75.0699V54.3322H83.0734ZM96.4213 30.3219V32.9897H99.0891V30.3219H96.4213ZM93.7535 32.9897V35.6575H96.4213V32.9897H93.7535ZM99.0891 32.9897V35.6575H101.757V32.9897H99.0891ZM93.7535 35.6575H91.0857V51.6644H93.7535V48.9966H96.4213V46.3288H93.7535V35.6575ZM99.0891 40.9932H101.757V51.6644H104.425V35.6575H101.757V38.3254H99.0891V40.9932ZM99.0891 40.9932H96.4213V46.3288H99.0891V40.9932ZM93.7535 51.6644V54.3322H96.4213V51.6644H93.7535ZM99.0891 51.6644V54.3322H101.757V51.6644H99.0891ZM96.4213 54.3322V57H99.0891V54.3322H96.4213ZM115.105 30.3219V32.9897H117.773V30.3219H115.105ZM112.437 32.9897V35.6575H115.105V32.9897H112.437ZM117.773 32.9897V35.6575H120.441V32.9897H117.773ZM112.437 35.6575H109.769V51.6644H112.437V48.9966H115.105V46.3288H112.437V35.6575ZM117.773 40.9932H120.441V51.6644H123.108V35.6575H120.441V38.3254H117.773V40.9932ZM117.773 40.9932H115.105V46.3288H117.773V40.9932ZM112.437 51.6644V54.3322H115.105V51.6644H112.437ZM117.773 51.6644V54.3322H120.441V51.6644H117.773ZM115.105 54.3322V57H117.773V54.3322H115.105ZM133.788 30.3219V32.9897H136.456V30.3219H133.788ZM131.121 32.9897V35.6575H133.788V32.9897H131.121ZM136.456 32.9897V35.6575H139.124V32.9897H136.456ZM131.121 35.6575H128.453V51.6644H131.121V48.9966H133.788V46.3288H131.121V35.6575ZM136.456 40.9932H139.124V51.6644H141.792V35.6575H139.124V38.3254H136.456V40.9932ZM136.456 40.9932H133.788V46.3288H136.456V40.9932ZM131.121 51.6644V54.3322H133.788V51.6644H131.121ZM136.456 51.6644V54.3322H139.124V51.6644H136.456ZM133.788 54.3322V57H136.456V54.3322H133.788ZM155.14 30.3219H152.472V32.9897H155.14V30.3219ZM155.14 46.3288V38.3254H152.472V46.3288H155.14ZM152.472 46.3288H149.804V48.9966H152.472V46.3288ZM149.804 48.9966H147.136V54.3322H149.804V48.9966ZM157.808 48.9966V54.3322H160.475V48.9966H157.808ZM157.808 54.3322H149.804V57H157.808V54.3322ZM173.823 30.3219H171.156V32.9897H173.823V30.3219ZM173.823 46.3288V38.3254H171.156V46.3288H173.823ZM171.156 46.3288H168.488V48.9966H171.156V46.3288ZM168.488 48.9966H165.82V54.3322H168.488V48.9966ZM176.491 48.9966V54.3322H179.159V48.9966H176.491ZM176.491 54.3322H168.488V57H176.491V54.3322ZM189.839 30.3219V32.9897H192.507V30.3219H189.839ZM187.171 32.9897V35.6575H189.839V32.9897H187.171ZM192.507 32.9897V35.6575H195.175V32.9897H192.507ZM187.171 35.6575H184.504V51.6644H187.171V48.9966H189.839V46.3288H187.171V35.6575ZM192.507 40.9932H195.175V51.6644H197.843V35.6575H195.175V38.3254H192.507V40.9932ZM192.507 40.9932H189.839V46.3288H192.507V40.9932ZM187.171 51.6644V54.3322H189.839V51.6644H187.171ZM192.507 51.6644V54.3322H195.175V51.6644H192.507ZM189.839 54.3322V57H192.507V54.3322H189.839ZM208.523 30.3219V32.9897H211.191V30.3219H208.523ZM205.855 32.9897V35.6575H208.523V32.9897H205.855ZM211.191 32.9897V35.6575H213.858V32.9897H211.191ZM205.855 35.6575H203.187V51.6644H205.855V48.9966H208.523V46.3288H205.855V35.6575ZM211.191 40.9932H213.858V51.6644H216.526V35.6575H213.858V38.3254H211.191V40.9932ZM211.191 40.9932H208.523V46.3288H211.191V40.9932ZM205.855 51.6644V54.3322H208.523V51.6644H205.855ZM211.191 51.6644V54.3322H213.858V51.6644H211.191ZM208.523 54.3322V57H211.191V54.3322H208.523ZM227.206 30.3219V32.9897H229.874V30.3219H227.206ZM224.539 32.9897V35.6575H227.206V32.9897H224.539ZM229.874 32.9897V35.6575H232.542V32.9897H229.874ZM224.539 35.6575H221.871V51.6644H224.539V48.9966H227.206V46.3288H224.539V35.6575ZM229.874 40.9932H232.542V51.6644H235.21V35.6575H232.542V38.3254H229.874V40.9932ZM229.874 40.9932H227.206V46.3288H229.874V40.9932ZM224.539 51.6644V54.3322H227.206V51.6644H224.539ZM229.874 51.6644V54.3322H232.542V51.6644H229.874ZM227.206 54.3322V57H229.874V54.3322H227.206ZM251.226 32.9897V30.3219H243.222V32.9897H251.226ZM240.554 32.9897V35.6575H243.222V32.9897H240.554ZM251.226 32.9897V35.6575H253.893V32.9897H251.226ZM240.554 35.6575H237.887V48.9966H240.554V35.6575ZM245.89 35.6575V38.3254H248.558V35.6575H245.89ZM256.561 35.6575H253.893V48.9966H256.561V35.6575ZM245.89 38.3254H243.222V48.9966H245.89V43.661H248.558V40.9932H245.89V38.3254ZM248.558 38.3254V40.9932H251.226V38.3254H248.558ZM251.226 43.661H248.558V48.9966H251.226V43.661ZM240.554 48.9966V51.6644H243.222V48.9966H240.554ZM251.226 48.9966V51.6644H253.893V48.9966H251.226ZM251.226 54.3322V51.6644H243.222V54.3322H251.226ZM272.577 54.3322H267.241V30.3219H264.574V32.9897H261.906V35.6575H264.574V54.3322H259.238V57H272.577V54.3322ZM259.238 35.6575V38.3254H261.906V35.6575H259.238ZM291.261 54.3322H285.925V30.3219H283.257V32.9897H280.589V35.6575H283.257V54.3322H277.921V57H291.261V54.3322ZM277.921 35.6575V38.3254H280.589V35.6575H277.921ZM309.944 54.3322H304.609V30.3219H301.941V32.9897H299.273V35.6575H301.941V54.3322H296.605V57H309.944V54.3322ZM296.605 35.6575V38.3254H299.273V35.6575H296.605ZM99.0891 57.6541H96.4213V89.6678H99.0891V57.6541ZM112.437 60.3219H109.769V65.6575H112.437V60.3219ZM115.105 65.6575H112.437V70.9932H115.105V65.6575ZM117.773 70.9932H115.105V76.3288H117.773V70.9932ZM120.441 76.3288H117.773V81.6644H120.441V76.3288ZM123.108 81.6644H120.441V87H123.108V81.6644ZM141.792 60.3219H139.124V65.6575H141.792V60.3219ZM139.124 65.6575H136.456V70.9932H139.124V65.6575ZM136.456 70.9932H133.788V76.3288H136.456V70.9932ZM133.788 76.3288H131.121V81.6644H133.788V76.3288ZM131.121 81.6644H128.453V87H131.121V81.6644ZM187.171 60.3219H184.504V65.6575H187.171V60.3219ZM189.839 65.6575H187.171V70.9932H189.839V65.6575ZM192.507 70.9932H189.839V76.3288H192.507V70.9932ZM195.175 76.3288H192.507V81.6644H195.175V76.3288ZM197.843 81.6644H195.175V87H197.843V81.6644ZM216.526 60.3219H213.858V65.6575H216.526V60.3219ZM213.858 65.6575H211.191V70.9932H213.858V65.6575ZM211.191 70.9932H208.523V76.3288H211.191V70.9932ZM208.523 76.3288H205.855V81.6644H208.523V76.3288ZM205.855 81.6644H203.187V87H205.855V81.6644ZM229.874 57.6541H227.206V89.6678H229.874V57.6541ZM64.3898 90.3219V92.9897H67.0576V90.3219H64.3898ZM61.722 92.9897V95.6575H64.3898V92.9897H61.722ZM59.0542 95.6575V98.3254H61.722V95.6575H59.0542ZM59.0542 98.3254H56.3864V108.997H59.0542V98.3254ZM59.0542 108.997V111.664H61.722V108.997H59.0542ZM61.722 111.664V114.332H64.3898V111.664H61.722ZM64.3898 114.332V117H67.0576V114.332H64.3898ZM85.7412 90.3219H72.4021V117H75.0699V103.661H85.7412V100.993H75.0699V92.9897H85.7412V90.3219ZM99.0891 87.6541H96.4213V119.668H99.0891V87.6541ZM112.437 90.3219H109.769V106.329H112.437V90.3219ZM117.773 90.3219H115.105V106.329H117.773V90.3219ZM123.108 90.3219H120.441V106.329H123.108V90.3219ZM115.105 106.329H112.437V117H115.105V106.329ZM120.441 106.329H117.773V117H120.441V106.329ZM131.121 90.3219H128.453V106.329H131.121V90.3219ZM136.456 90.3219H133.788V106.329H136.456V90.3219ZM141.792 90.3219H139.124V106.329H141.792V90.3219ZM133.788 106.329H131.121V117H133.788V106.329ZM139.124 106.329H136.456V117H139.124V106.329ZM149.804 90.3219H147.136V106.329H149.804V90.3219ZM155.14 90.3219H152.472V106.329H155.14V90.3219ZM160.475 90.3219H157.808V106.329H160.475V90.3219ZM152.472 106.329H149.804V117H152.472V106.329ZM157.808 106.329H155.14V117H157.808V106.329ZM168.488 90.3219H165.82V106.329H168.488V90.3219ZM173.823 90.3219H171.156V106.329H173.823V90.3219ZM179.159 90.3219H176.491V106.329H179.159V90.3219ZM171.156 106.329H168.488V117H171.156V106.329ZM176.491 106.329H173.823V117H176.491V106.329ZM187.171 90.3219H184.504V106.329H187.171V90.3219ZM192.507 90.3219H189.839V106.329H192.507V90.3219ZM197.843 90.3219H195.175V106.329H197.843V90.3219ZM189.839 106.329H187.171V117H189.839V106.329ZM195.175 106.329H192.507V117H195.175V106.329ZM205.855 90.3219H203.187V106.329H205.855V90.3219ZM211.191 90.3219H208.523V106.329H211.191V90.3219ZM216.526 90.3219H213.858V106.329H216.526V90.3219ZM208.523 106.329H205.855V117H208.523V106.329ZM213.858 106.329H211.191V117H213.858V106.329ZM229.874 87.6541H227.206V119.668H229.874V87.6541ZM253.893 90.3219H240.554V117H243.222V103.661H253.893V100.993H243.222V92.9897H253.893V90.3219ZM259.238 92.9897H261.906V90.3219H259.238V92.9897ZM261.906 95.6575H264.574V92.9897H261.906V95.6575ZM264.574 98.3254H267.241V95.6575H264.574V98.3254ZM269.909 98.3254H267.241V108.997H269.909V98.3254ZM264.574 111.664H267.241V108.997H264.574V111.664ZM261.906 114.332H264.574V111.664H261.906V114.332ZM259.238 117H261.906V114.332H259.238V117ZM61.722 122.99H67.0576V120.322H61.722V117.654H59.0542V120.322H53.7185V122.99H59.0542V125.658H53.7185V128.325H59.0542V149.668H61.722V128.325H67.0576V125.658H61.722V122.99ZM93.7535 120.322H91.0857V125.658H93.7535V120.322ZM96.4213 125.658H93.7535V130.993H96.4213V125.658ZM99.0891 130.993H96.4213V136.329H99.0891V130.993ZM101.757 136.329H99.0891V141.664H101.757V136.329ZM104.425 141.664H101.757V147H104.425V141.664ZM123.108 133.661V130.993H109.769V133.661H123.108ZM123.108 138.997V136.329H109.769V138.997H123.108ZM149.804 120.322H147.136V130.993H149.804V120.322ZM160.475 120.322H157.808V130.993H160.475V120.322ZM152.472 130.993H149.804V141.664H152.472V130.993ZM157.808 130.993H155.14V141.664H157.808V130.993ZM155.14 141.664H152.472V147H155.14V141.664ZM216.526 133.661V130.993H203.187V133.661H216.526ZM216.526 138.997V136.329H203.187V138.997H216.526ZM235.21 120.322H232.542V125.658H235.21V120.322ZM232.542 125.658H229.874V130.993H232.542V125.658ZM229.874 130.993H227.206V136.329H229.874V130.993ZM227.206 136.329H224.539V141.664H227.206V136.329ZM224.539 141.664H221.871V147H224.539V141.664ZM117.773 147.654H115.105V179.668H117.773V147.654ZM152.472 150.322V152.99H155.14V150.322H152.472ZM149.804 152.99V155.658H152.472V152.99H149.804ZM155.14 152.99V155.658H157.808V152.99H155.14ZM149.804 155.658H147.136V171.664H149.804V168.997H152.472V166.329H149.804V155.658ZM155.14 160.993H157.808V171.664H160.475V155.658H157.808V158.325H155.14V160.993ZM155.14 160.993H152.472V166.329H155.14V160.993ZM149.804 171.664V174.332H152.472V171.664H149.804ZM155.14 171.664V174.332H157.808V171.664H155.14ZM152.472 174.332V177H155.14V174.332H152.472ZM211.191 147.654H208.523V179.668H211.191V147.654ZM117.773 177.654H115.105V209.668H117.773V177.654ZM144.46 209.668V207H125.785V209.668H144.46ZM163.143 209.668V207H144.469V209.668H163.143ZM181.827 209.668V207H163.152V209.668H181.827ZM200.51 209.668V207H181.836V209.668H200.51ZM211.191 177.654H208.523V209.668H211.191V177.654ZM88.409 239.668V237H69.7343V239.668H88.409ZM107.093 239.668V237H88.4179V239.668H107.093ZM125.776 239.668V237H107.101V239.668H125.776ZM141.792 210.322H139.124V215.658H141.792V210.322ZM139.124 215.658H136.456V220.993H139.124V215.658ZM136.456 220.993H133.788V226.329H136.456V220.993ZM133.788 226.329H131.121V231.664H133.788V226.329ZM131.121 231.664H128.453V237H131.121V231.664ZM187.171 210.322H184.504V215.658H187.171V210.322ZM189.839 215.658H187.171V220.993H189.839V215.658ZM192.507 220.993H189.839V226.329H192.507V220.993ZM195.175 226.329H192.507V231.664H195.175V226.329ZM197.843 231.664H195.175V237H197.843V231.664ZM219.194 239.668V237H200.519V239.668H219.194ZM237.878 239.668V237H219.203V239.668H237.878ZM256.561 239.668V237H237.887V239.668H256.561ZM67.0576 240.322H64.3898V245.658H67.0576V240.322ZM64.3898 245.658H61.722V250.993H64.3898V245.658ZM61.722 250.993H59.0542V256.329H61.722V250.993ZM59.0542 256.329H56.3864V261.664H59.0542V256.329ZM56.3864 261.664H53.7185V267H56.3864V261.664ZM117.773 250.993H115.105V256.329H117.773V250.993ZM128.453 242.99H131.121V240.322H128.453V242.99ZM131.121 245.658H133.788V242.99H131.121V245.658ZM133.788 248.325H136.456V245.658H133.788V248.325ZM139.124 248.325H136.456V258.997H139.124V248.325ZM133.788 261.664H136.456V258.997H133.788V261.664ZM131.121 264.332H133.788V261.664H131.121V264.332ZM128.453 267H131.121V264.332H128.453V267ZM192.507 250.993H189.839V256.329H192.507V250.993ZM203.187 242.99H205.855V240.322H203.187V242.99ZM205.855 245.658H208.523V242.99H205.855V245.658ZM208.523 248.325H211.191V245.658H208.523V248.325ZM213.858 248.325H211.191V258.997H213.858V248.325ZM208.523 261.664H211.191V258.997H208.523V261.664ZM205.855 264.332H208.523V261.664H205.855V264.332ZM203.187 267H205.855V264.332H203.187V267ZM261.906 240.322H259.238V245.658H261.906V240.322ZM264.574 245.658H261.906V250.993H264.574V245.658ZM267.241 250.993H264.574V256.329H267.241V250.993ZM269.909 256.329H267.241V261.664H269.909V256.329ZM272.577 261.664H269.909V267H272.577V261.664ZM48.374 270.322H45.7062V275.658H48.374V270.322ZM45.7062 275.658H43.0384V280.993H45.7062V275.658ZM43.0384 280.993H40.3706V286.329H43.0384V280.993ZM40.3706 286.329H37.7028V291.664H40.3706V286.329ZM37.7028 291.664H35.035V297H37.7028V291.664ZM85.7412 270.322H83.0734V275.658H85.7412V270.322ZM83.0734 275.658H80.4055V280.993H83.0734V275.658ZM80.4055 280.993H77.7377V286.329H80.4055V280.993ZM77.7377 286.329H75.0699V291.664H77.7377V286.329ZM75.0699 291.664H72.4021V297H75.0699V291.664ZM99.0891 267.654H96.4213V299.668H99.0891V267.654ZM229.874 267.654H227.206V299.668H229.874V267.654ZM243.222 270.322H240.554V275.658H243.222V270.322ZM245.89 275.658H243.222V280.993H245.89V275.658ZM248.558 280.993H245.89V286.329H248.558V280.993ZM251.226 286.329H248.558V291.664H251.226V286.329ZM253.893 291.664H251.226V297H253.893V291.664ZM280.589 270.322H277.921V275.658H280.589V270.322ZM283.257 275.658H280.589V280.993H283.257V275.658ZM285.925 280.993H283.257V286.329H285.925V280.993ZM288.593 286.329H285.925V291.664H288.593V286.329ZM291.261 291.664H288.593V297H291.261V291.664ZM29.6904 300.322H27.0226V305.658H29.6904V300.322ZM27.0226 305.658H24.3548V310.993H27.0226V305.658ZM24.3548 310.993H21.687V316.329H24.3548V310.993ZM21.687 316.329H19.0192V321.664H21.687V316.329ZM19.0192 321.664H16.3514V327H19.0192V321.664ZM67.0576 300.322H64.3898V305.658H67.0576V300.322ZM64.3898 305.658H61.722V310.993H64.3898V305.658ZM61.722 310.993H59.0542V316.329H61.722V310.993ZM59.0542 316.329H56.3864V321.664H59.0542V316.329ZM56.3864 321.664H53.7185V327H56.3864V321.664ZM112.437 300.322H109.769V305.658H112.437V300.322ZM115.105 305.658H112.437V310.993H115.105V305.658ZM117.773 310.993H115.105V316.329H117.773V310.993ZM120.441 316.329H117.773V321.664H120.441V316.329ZM123.108 321.664H120.441V327H123.108V321.664ZM216.526 300.322H213.858V305.658H216.526V300.322ZM213.858 305.658H211.191V310.993H213.858V305.658ZM211.191 310.993H208.523V316.329H211.191V310.993ZM208.523 316.329H205.855V321.664H208.523V316.329ZM205.855 321.664H203.187V327H205.855V321.664ZM261.906 300.322H259.238V305.658H261.906V300.322ZM264.574 305.658H261.906V310.993H264.574V305.658ZM267.241 310.993H264.574V316.329H267.241V310.993ZM269.909 316.329H267.241V321.664H269.909V316.329ZM272.577 321.664H269.909V327H272.577V321.664ZM299.273 300.322H296.605V305.658H299.273V300.322ZM301.941 305.658H299.273V310.993H301.941V305.658ZM304.609 310.993H301.941V316.329H304.609V310.993ZM307.276 316.329H304.609V321.664H307.276V316.329ZM309.944 321.664H307.276V327H309.944V321.664ZM536.815 329.668V327H518.14V329.668H536.815ZM555.499 329.668V327H536.824V329.668H555.499ZM8.33904 330.322V332.99H11.0068V330.322H8.33904ZM5.67123 332.99V335.658H8.33904V332.99H5.67123ZM3.00342 335.658V338.325H5.67123V335.658H3.00342ZM3.00342 338.325H0.335614V348.997H3.00342V338.325ZM3.00342 348.997V351.664H5.67123V348.997H3.00342ZM5.67123 351.664V354.332H8.33904V351.664H5.67123ZM8.33904 354.332V357H11.0068V354.332H8.33904ZM53.7185 332.99H56.3864V330.322H53.7185V332.99ZM56.3864 335.658H59.0542V332.99H56.3864V335.658ZM59.0542 338.325H61.722V335.658H59.0542V338.325ZM64.3898 338.325H61.722V348.997H64.3898V338.325ZM59.0542 351.664H61.722V348.997H59.0542V351.664ZM56.3864 354.332H59.0542V351.664H56.3864V354.332ZM53.7185 357H56.3864V354.332H53.7185V357ZM136.456 327.654H133.788V359.668H136.456V327.654ZM157.808 332.99V335.658H160.475V332.99H157.808ZM155.14 335.658V338.325H157.808V335.658H155.14ZM152.472 338.325V340.993H155.14V338.325H152.472ZM149.804 340.993V343.661H152.472V340.993H149.804ZM147.136 343.661V346.329H149.804V343.661H147.136ZM149.804 346.329V348.997H152.472V346.329H149.804ZM152.472 348.997V351.664H155.14V348.997H152.472ZM155.14 351.664V354.332H157.808V351.664H155.14ZM157.808 354.332V357H160.475V354.332H157.808ZM176.491 332.99V335.658H179.159V332.99H176.491ZM173.823 335.658V338.325H176.491V335.658H173.823ZM171.156 338.325V340.993H173.823V338.325H171.156ZM168.488 340.993V343.661H171.156V340.993H168.488ZM165.82 343.661V346.329H168.488V343.661H165.82ZM168.488 346.329V348.997H171.156V346.329H168.488ZM171.156 348.997V351.664H173.823V348.997H171.156ZM173.823 351.664V354.332H176.491V351.664H173.823ZM176.491 354.332V357H179.159V354.332H176.491ZM192.507 327.654H189.839V359.668H192.507V327.654ZM269.909 330.322V332.99H272.577V330.322H269.909ZM267.241 332.99V335.658H269.909V332.99H267.241ZM264.574 335.658V338.325H267.241V335.658H264.574ZM264.574 338.325H261.906V348.997H264.574V338.325ZM264.574 348.997V351.664H267.241V348.997H264.574ZM267.241 351.664V354.332H269.909V351.664H267.241ZM269.909 354.332V357H272.577V354.332H269.909ZM315.289 332.99H317.956V330.322H315.289V332.99ZM317.956 335.658H320.624V332.99H317.956V335.658ZM320.624 338.325H323.292V335.658H320.624V338.325ZM325.96 338.325H323.292V348.997H325.96V338.325ZM320.624 351.664H323.292V348.997H320.624V351.664ZM317.956 354.332H320.624V351.664H317.956V354.332ZM315.289 357H317.956V354.332H315.289V357ZM515.464 330.322H512.796V335.658H515.464V330.322ZM512.796 335.658H510.128V340.993H512.796V335.658ZM510.128 340.993H507.46V346.329H510.128V340.993ZM507.46 346.329H504.792V351.664H507.46V346.329ZM504.792 351.664H502.124V357H504.792V351.664ZM531.479 332.99V335.658H534.147V332.99H531.479ZM528.811 335.658V338.325H531.479V335.658H528.811ZM526.144 338.325V340.993H528.811V338.325H526.144ZM523.476 340.993V343.661H526.144V340.993H523.476ZM520.808 343.661V346.329H523.476V343.661H520.808ZM523.476 346.329V348.997H526.144V346.329H523.476ZM526.144 348.997V351.664H528.811V348.997H526.144ZM528.811 351.664V354.332H531.479V351.664H528.811ZM531.479 354.332V357H534.147V354.332H531.479ZM550.163 332.99V335.658H552.831V332.99H550.163ZM547.495 335.658V338.325H550.163V335.658H547.495ZM544.827 338.325V340.993H547.495V338.325H544.827ZM542.159 340.993V343.661H544.827V340.993H542.159ZM539.492 343.661V346.329H542.159V343.661H539.492ZM542.159 346.329V348.997H544.827V346.329H542.159ZM544.827 348.997V351.664H547.495V348.997H544.827ZM547.495 351.664V354.332H550.163V351.664H547.495ZM550.163 354.332V357H552.831V354.332H550.163ZM560.843 330.322H558.175V335.658H560.843V330.322ZM563.511 335.658H560.843V340.993H563.511V335.658ZM566.179 340.993H563.511V346.329H566.179V340.993ZM568.846 346.329H566.179V351.664H568.846V346.329ZM571.514 351.664H568.846V357H571.514V351.664ZM24.3548 362.99H29.6904V360.322H24.3548V357.654H21.687V360.322H16.3514V362.99H21.687V365.658H16.3514V368.325H21.687V389.668H24.3548V368.325H29.6904V365.658H24.3548V362.99ZM43.0384 362.99H48.374V360.322H43.0384V357.654H40.3706V360.322H35.035V362.99H40.3706V365.658H35.035V368.325H40.3706V389.668H43.0384V368.325H48.374V365.658H43.0384V362.99ZM123.108 360.322H120.441V365.658H123.108V360.322ZM120.441 365.658H117.773V370.993H120.441V365.658ZM117.773 370.993H115.105V376.329H117.773V370.993ZM115.105 376.329H112.437V381.664H115.105V376.329ZM112.437 381.664H109.769V387H112.437V381.664ZM139.124 362.99V365.658H141.792V362.99H139.124ZM136.456 365.658V368.325H139.124V365.658H136.456ZM133.788 368.325V370.993H136.456V368.325H133.788ZM131.121 370.993V373.661H133.788V370.993H131.121ZM128.453 373.661V376.329H131.121V373.661H128.453ZM131.121 376.329V378.997H133.788V376.329H131.121ZM133.788 378.997V381.664H136.456V378.997H133.788ZM136.456 381.664V384.332H139.124V381.664H136.456ZM139.124 384.332V387H141.792V384.332H139.124ZM157.808 362.99V365.658H160.475V362.99H157.808ZM155.14 365.658V368.325H157.808V365.658H155.14ZM152.472 368.325V370.993H155.14V368.325H152.472ZM149.804 370.993V373.661H152.472V370.993H149.804ZM147.136 373.661V376.329H149.804V373.661H147.136ZM149.804 376.329V378.997H152.472V376.329H149.804ZM152.472 378.997V381.664H155.14V378.997H152.472ZM155.14 381.664V384.332H157.808V381.664H155.14ZM157.808 384.332V387H160.475V384.332H157.808ZM176.491 362.99V365.658H179.159V362.99H176.491ZM173.823 365.658V368.325H176.491V365.658H173.823ZM171.156 368.325V370.993H173.823V368.325H171.156ZM168.488 370.993V373.661H171.156V370.993H168.488ZM165.82 373.661V376.329H168.488V373.661H165.82ZM168.488 376.329V378.997H171.156V376.329H168.488ZM171.156 378.997V381.664H173.823V378.997H171.156ZM173.823 381.664V384.332H176.491V381.664H173.823ZM176.491 384.332V387H179.159V384.332H176.491ZM195.175 362.99V365.658H197.843V362.99H195.175ZM192.507 365.658V368.325H195.175V365.658H192.507ZM189.839 368.325V370.993H192.507V368.325H189.839ZM187.171 370.993V373.661H189.839V370.993H187.171ZM184.504 373.661V376.329H187.171V373.661H184.504ZM187.171 376.329V378.997H189.839V376.329H187.171ZM189.839 378.997V381.664H192.507V378.997H189.839ZM192.507 381.664V384.332H195.175V381.664H192.507ZM195.175 384.332V387H197.843V384.332H195.175ZM205.855 360.322H203.187V365.658H205.855V360.322ZM208.523 365.658H205.855V370.993H208.523V365.658ZM211.191 370.993H208.523V376.329H211.191V370.993ZM213.858 376.329H211.191V381.664H213.858V376.329ZM216.526 381.664H213.858V387H216.526V381.664ZM285.925 362.99H291.261V360.322H285.925V357.654H283.257V360.322H277.921V362.99H283.257V365.658H277.921V368.325H283.257V389.668H285.925V368.325H291.261V365.658H285.925V362.99ZM304.609 362.99H309.944V360.322H304.609V357.654H301.941V360.322H296.605V362.99H301.941V365.658H296.605V368.325H301.941V389.668H304.609V368.325H309.944V365.658H304.609V362.99ZM496.78 360.322H494.112V365.658H496.78V360.322ZM494.112 365.658H491.444V370.993H494.112V365.658ZM491.444 370.993H488.777V376.329H491.444V370.993ZM488.777 376.329H486.109V381.664H488.777V376.329ZM486.109 381.664H483.441V387H486.109V381.664ZM512.796 362.99V365.658H515.464V362.99H512.796ZM510.128 365.658V368.325H512.796V365.658H510.128ZM507.46 368.325V370.993H510.128V368.325H507.46ZM504.792 370.993V373.661H507.46V370.993H504.792ZM502.124 373.661V376.329H504.792V373.661H502.124ZM504.792 376.329V378.997H507.46V376.329H504.792ZM507.46 378.997V381.664H510.128V378.997H507.46ZM510.128 381.664V384.332H512.796V381.664H510.128ZM512.796 384.332V387H515.464V384.332H512.796ZM531.479 362.99V365.658H534.147V362.99H531.479ZM528.811 365.658V368.325H531.479V365.658H528.811ZM526.144 368.325V370.993H528.811V368.325H526.144ZM523.476 370.993V373.661H526.144V370.993H523.476ZM520.808 373.661V376.329H523.476V373.661H520.808ZM523.476 376.329V378.997H526.144V376.329H523.476ZM526.144 378.997V381.664H528.811V378.997H526.144ZM528.811 381.664V384.332H531.479V381.664H528.811ZM531.479 384.332V387H534.147V384.332H531.479ZM550.163 362.99V365.658H552.831V362.99H550.163ZM547.495 365.658V368.325H550.163V365.658H547.495ZM544.827 368.325V370.993H547.495V368.325H544.827ZM542.159 370.993V373.661H544.827V370.993H542.159ZM539.492 373.661V376.329H542.159V373.661H539.492ZM542.159 376.329V378.997H544.827V376.329H542.159ZM544.827 378.997V381.664H547.495V378.997H544.827ZM547.495 381.664V384.332H550.163V381.664H547.495ZM550.163 384.332V387H552.831V384.332H550.163ZM571.514 360.322H568.846V365.658H571.514V360.322ZM568.846 365.658H566.179V370.993H568.846V365.658ZM566.179 370.993H563.511V376.329H566.179V370.993ZM563.511 376.329H560.843V381.664H563.511V376.329ZM560.843 381.664H558.175V387H560.843V381.664ZM99.0891 387.654H96.4213V419.668H99.0891V387.654ZM120.441 392.99V395.658H123.108V392.99H120.441ZM117.773 395.658V398.325H120.441V395.658H117.773ZM115.105 398.325V400.993H117.773V398.325H115.105ZM112.437 400.993V403.661H115.105V400.993H112.437ZM109.769 403.661V406.329H112.437V403.661H109.769ZM112.437 406.329V408.997H115.105V406.329H112.437ZM115.105 408.997V411.664H117.773V408.997H115.105ZM117.773 411.664V414.332H120.441V411.664H117.773ZM120.441 414.332V417H123.108V414.332H120.441ZM139.124 392.99V395.658H141.792V392.99H139.124ZM136.456 395.658V398.325H139.124V395.658H136.456ZM133.788 398.325V400.993H136.456V398.325H133.788ZM131.121 400.993V403.661H133.788V400.993H131.121ZM128.453 403.661V406.329H131.121V403.661H128.453ZM131.121 406.329V408.997H133.788V406.329H131.121ZM133.788 408.997V411.664H136.456V408.997H133.788ZM136.456 411.664V414.332H139.124V411.664H136.456ZM139.124 414.332V417H141.792V414.332H139.124ZM157.808 392.99V395.658H160.475V392.99H157.808ZM155.14 395.658V398.325H157.808V395.658H155.14ZM152.472 398.325V400.993H155.14V398.325H152.472ZM149.804 400.993V403.661H152.472V400.993H149.804ZM147.136 403.661V406.329H149.804V403.661H147.136ZM149.804 406.329V408.997H152.472V406.329H149.804ZM152.472 408.997V411.664H155.14V408.997H152.472ZM155.14 411.664V414.332H157.808V411.664H155.14ZM157.808 414.332V417H160.475V414.332H157.808ZM176.491 392.99V395.658H179.159V392.99H176.491ZM173.823 395.658V398.325H176.491V395.658H173.823ZM171.156 398.325V400.993H173.823V398.325H171.156ZM168.488 400.993V403.661H171.156V400.993H168.488ZM165.82 403.661V406.329H168.488V403.661H165.82ZM168.488 406.329V408.997H171.156V406.329H168.488ZM171.156 408.997V411.664H173.823V408.997H171.156ZM173.823 411.664V414.332H176.491V411.664H173.823ZM176.491 414.332V417H179.159V414.332H176.491ZM195.175 392.99V395.658H197.843V392.99H195.175ZM192.507 395.658V398.325H195.175V395.658H192.507ZM189.839 398.325V400.993H192.507V398.325H189.839ZM187.171 400.993V403.661H189.839V400.993H187.171ZM184.504 403.661V406.329H187.171V403.661H184.504ZM187.171 406.329V408.997H189.839V406.329H187.171ZM189.839 408.997V411.664H192.507V408.997H189.839ZM192.507 411.664V414.332H195.175V411.664H192.507ZM195.175 414.332V417H197.843V414.332H195.175ZM213.858 392.99V395.658H216.526V392.99H213.858ZM211.191 395.658V398.325H213.858V395.658H211.191ZM208.523 398.325V400.993H211.191V398.325H208.523ZM205.855 400.993V403.661H208.523V400.993H205.855ZM203.187 403.661V406.329H205.855V403.661H203.187ZM205.855 406.329V408.997H208.523V406.329H205.855ZM208.523 408.997V411.664H211.191V408.997H208.523ZM211.191 411.664V414.332H213.858V411.664H211.191ZM213.858 414.332V417H216.526V414.332H213.858ZM229.874 387.654H227.206V419.668H229.874V387.654ZM256.561 419.668V417H237.887V419.668H256.561ZM275.245 419.668V417H256.57V419.668H275.245ZM293.928 419.668V417H275.254V419.668H293.928ZM312.612 419.668V417H293.937V419.668H312.612ZM331.296 419.668V417H312.621V419.668H331.296ZM349.979 419.668V417H331.304V419.668H349.979ZM368.663 419.668V417H349.988V419.668H368.663ZM387.346 419.668V417H368.672V419.668H387.346ZM406.03 419.668V417H387.355V419.668H406.03ZM424.713 419.668V417H406.039V419.668H424.713ZM443.397 419.668V417H424.722V419.668H443.397ZM462.081 419.668V417H443.406V419.668H462.081ZM478.096 390.322H475.429V395.658H478.096V390.322ZM475.429 395.658H472.761V400.993H475.429V395.658ZM472.761 400.993H470.093V406.329H472.761V400.993ZM470.093 406.329H467.425V411.664H470.093V406.329ZM467.425 411.664H464.757V417H467.425V411.664ZM494.112 392.99V395.658H496.78V392.99H494.112ZM491.444 395.658V398.325H494.112V395.658H491.444ZM488.777 398.325V400.993H491.444V398.325H488.777ZM486.109 400.993V403.661H488.777V400.993H486.109ZM483.441 403.661V406.329H486.109V403.661H483.441ZM486.109 406.329V408.997H488.777V406.329H486.109ZM488.777 408.997V411.664H491.444V408.997H488.777ZM491.444 411.664V414.332H494.112V411.664H491.444ZM494.112 414.332V417H496.78V414.332H494.112ZM512.796 392.99V395.658H515.464V392.99H512.796ZM510.128 395.658V398.325H512.796V395.658H510.128ZM507.46 398.325V400.993H510.128V398.325H507.46ZM504.792 400.993V403.661H507.46V400.993H504.792ZM502.124 403.661V406.329H504.792V403.661H502.124ZM504.792 406.329V408.997H507.46V406.329H504.792ZM507.46 408.997V411.664H510.128V408.997H507.46ZM510.128 411.664V414.332H512.796V411.664H510.128ZM512.796 414.332V417H515.464V414.332H512.796ZM531.479 392.99V395.658H534.147V392.99H531.479ZM528.811 395.658V398.325H531.479V395.658H528.811ZM526.144 398.325V400.993H528.811V398.325H526.144ZM523.476 400.993V403.661H526.144V400.993H523.476ZM520.808 403.661V406.329H523.476V403.661H520.808ZM523.476 406.329V408.997H526.144V406.329H523.476ZM526.144 408.997V411.664H528.811V408.997H526.144ZM528.811 411.664V414.332H531.479V411.664H528.811ZM531.479 414.332V417H534.147V414.332H531.479ZM552.831 390.322H550.163V395.658H552.831V390.322ZM550.163 395.658H547.495V400.993H550.163V395.658ZM547.495 400.993H544.827V406.329H547.495V400.993ZM544.827 406.329H542.159V411.664H544.827V406.329ZM542.159 411.664H539.492V417H542.159V411.664ZM101.757 422.99V425.658H104.425V422.99H101.757ZM99.0891 425.658V428.325H101.757V425.658H99.0891ZM96.4213 428.325V430.993H99.0891V428.325H96.4213ZM93.7535 430.993V433.661H96.4213V430.993H93.7535ZM91.0857 433.661V436.329H93.7535V433.661H91.0857ZM93.7535 436.329V438.997H96.4213V436.329H93.7535ZM96.4213 438.997V441.664H99.0891V438.997H96.4213ZM99.0891 441.664V444.332H101.757V441.664H99.0891ZM101.757 444.332V447H104.425V444.332H101.757ZM120.441 422.99V425.658H123.108V422.99H120.441ZM117.773 425.658V428.325H120.441V425.658H117.773ZM115.105 428.325V430.993H117.773V428.325H115.105ZM112.437 430.993V433.661H115.105V430.993H112.437ZM109.769 433.661V436.329H112.437V433.661H109.769ZM112.437 436.329V438.997H115.105V436.329H112.437ZM115.105 438.997V441.664H117.773V438.997H115.105ZM117.773 441.664V444.332H120.441V441.664H117.773ZM120.441 444.332V447H123.108V444.332H120.441ZM139.124 422.99V425.658H141.792V422.99H139.124ZM136.456 425.658V428.325H139.124V425.658H136.456ZM133.788 428.325V430.993H136.456V428.325H133.788ZM131.121 430.993V433.661H133.788V430.993H131.121ZM128.453 433.661V436.329H131.121V433.661H128.453ZM131.121 436.329V438.997H133.788V436.329H131.121ZM133.788 438.997V441.664H136.456V438.997H133.788ZM136.456 441.664V444.332H139.124V441.664H136.456ZM139.124 444.332V447H141.792V444.332H139.124ZM157.808 422.99V425.658H160.475V422.99H157.808ZM155.14 425.658V428.325H157.808V425.658H155.14ZM152.472 428.325V430.993H155.14V428.325H152.472ZM149.804 430.993V433.661H152.472V430.993H149.804ZM147.136 433.661V436.329H149.804V433.661H147.136ZM149.804 436.329V438.997H152.472V436.329H149.804ZM152.472 438.997V441.664H155.14V438.997H152.472ZM155.14 441.664V444.332H157.808V441.664H155.14ZM157.808 444.332V447H160.475V444.332H157.808ZM176.491 422.99V425.658H179.159V422.99H176.491ZM173.823 425.658V428.325H176.491V425.658H173.823ZM171.156 428.325V430.993H173.823V428.325H171.156ZM168.488 430.993V433.661H171.156V430.993H168.488ZM165.82 433.661V436.329H168.488V433.661H165.82ZM168.488 436.329V438.997H171.156V436.329H168.488ZM171.156 438.997V441.664H173.823V438.997H171.156ZM173.823 441.664V444.332H176.491V441.664H173.823ZM176.491 444.332V447H179.159V444.332H176.491ZM195.175 422.99V425.658H197.843V422.99H195.175ZM192.507 425.658V428.325H195.175V425.658H192.507ZM189.839 428.325V430.993H192.507V428.325H189.839ZM187.171 430.993V433.661H189.839V430.993H187.171ZM184.504 433.661V436.329H187.171V433.661H184.504ZM187.171 436.329V438.997H189.839V436.329H187.171ZM189.839 438.997V441.664H192.507V438.997H189.839ZM192.507 441.664V444.332H195.175V441.664H192.507ZM195.175 444.332V447H197.843V444.332H195.175ZM213.858 422.99V425.658H216.526V422.99H213.858ZM211.191 425.658V428.325H213.858V425.658H211.191ZM208.523 428.325V430.993H211.191V428.325H208.523ZM205.855 430.993V433.661H208.523V430.993H205.855ZM203.187 433.661V436.329H205.855V433.661H203.187ZM205.855 436.329V438.997H208.523V436.329H205.855ZM208.523 438.997V441.664H211.191V438.997H208.523ZM211.191 441.664V444.332H213.858V441.664H211.191ZM213.858 444.332V447H216.526V444.332H213.858ZM232.542 422.99V425.658H235.21V422.99H232.542ZM229.874 425.658V428.325H232.542V425.658H229.874ZM227.206 428.325V430.993H229.874V428.325H227.206ZM224.539 430.993V433.661H227.206V430.993H224.539ZM221.871 433.661V436.329H224.539V433.661H221.871ZM224.539 436.329V438.997H227.206V436.329H224.539ZM227.206 438.997V441.664H229.874V438.997H227.206ZM229.874 441.664V444.332H232.542V441.664H229.874ZM232.542 444.332V447H235.21V444.332H232.542ZM251.226 422.99V425.658H253.893V422.99H251.226ZM248.558 425.658V428.325H251.226V425.658H248.558ZM245.89 428.325V430.993H248.558V428.325H245.89ZM243.222 430.993V433.661H245.89V430.993H243.222ZM240.554 433.661V436.329H243.222V433.661H240.554ZM243.222 436.329V438.997H245.89V436.329H243.222ZM245.89 438.997V441.664H248.558V438.997H245.89ZM248.558 441.664V444.332H251.226V441.664H248.558ZM251.226 444.332V447H253.893V444.332H251.226ZM269.909 422.99V425.658H272.577V422.99H269.909ZM267.241 425.658V428.325H269.909V425.658H267.241ZM264.574 428.325V430.993H267.241V428.325H264.574ZM261.906 430.993V433.661H264.574V430.993H261.906ZM259.238 433.661V436.329H261.906V433.661H259.238ZM261.906 436.329V438.997H264.574V436.329H261.906ZM264.574 438.997V441.664H267.241V438.997H264.574ZM267.241 441.664V444.332H269.909V441.664H267.241ZM269.909 444.332V447H272.577V444.332H269.909ZM288.593 422.99V425.658H291.261V422.99H288.593ZM285.925 425.658V428.325H288.593V425.658H285.925ZM283.257 428.325V430.993H285.925V428.325H283.257ZM280.589 430.993V433.661H283.257V430.993H280.589ZM277.921 433.661V436.329H280.589V433.661H277.921ZM280.589 436.329V438.997H283.257V436.329H280.589ZM283.257 438.997V441.664H285.925V438.997H283.257ZM285.925 441.664V444.332H288.593V441.664H285.925ZM288.593 444.332V447H291.261V444.332H288.593ZM307.276 422.99V425.658H309.944V422.99H307.276ZM304.609 425.658V428.325H307.276V425.658H304.609ZM301.941 428.325V430.993H304.609V428.325H301.941ZM299.273 430.993V433.661H301.941V430.993H299.273ZM296.605 433.661V436.329H299.273V433.661H296.605ZM299.273 436.329V438.997H301.941V436.329H299.273ZM301.941 438.997V441.664H304.609V438.997H301.941ZM304.609 441.664V444.332H307.276V441.664H304.609ZM307.276 444.332V447H309.944V444.332H307.276ZM325.96 422.99V425.658H328.628V422.99H325.96ZM323.292 425.658V428.325H325.96V425.658H323.292ZM320.624 428.325V430.993H323.292V428.325H320.624ZM317.956 430.993V433.661H320.624V430.993H317.956ZM315.289 433.661V436.329H317.956V433.661H315.289ZM317.956 436.329V438.997H320.624V436.329H317.956ZM320.624 438.997V441.664H323.292V438.997H320.624ZM323.292 441.664V444.332H325.96V441.664H323.292ZM325.96 444.332V447H328.628V444.332H325.96ZM344.643 422.99V425.658H347.311V422.99H344.643ZM341.976 425.658V428.325H344.643V425.658H341.976ZM339.308 428.325V430.993H341.976V428.325H339.308ZM336.64 430.993V433.661H339.308V430.993H336.64ZM333.972 433.661V436.329H336.64V433.661H333.972ZM336.64 436.329V438.997H339.308V436.329H336.64ZM339.308 438.997V441.664H341.976V438.997H339.308ZM341.976 441.664V444.332H344.643V441.664H341.976ZM344.643 444.332V447H347.311V444.332H344.643ZM363.327 422.99V425.658H365.995V422.99H363.327ZM360.659 425.658V428.325H363.327V425.658H360.659ZM357.991 428.325V430.993H360.659V428.325H357.991ZM355.324 430.993V433.661H357.991V430.993H355.324ZM352.656 433.661V436.329H355.324V433.661H352.656ZM355.324 436.329V438.997H357.991V436.329H355.324ZM357.991 438.997V441.664H360.659V438.997H357.991ZM360.659 441.664V444.332H363.327V441.664H360.659ZM363.327 444.332V447H365.995V444.332H363.327ZM382.011 422.99V425.658H384.678V422.99H382.011ZM379.343 425.658V428.325H382.011V425.658H379.343ZM376.675 428.325V430.993H379.343V428.325H376.675ZM374.007 430.993V433.661H376.675V430.993H374.007ZM371.339 433.661V436.329H374.007V433.661H371.339ZM374.007 436.329V438.997H376.675V436.329H374.007ZM376.675 438.997V441.664H379.343V438.997H376.675ZM379.343 441.664V444.332H382.011V441.664H379.343ZM382.011 444.332V447H384.678V444.332H382.011ZM400.694 422.99V425.658H403.362V422.99H400.694ZM398.026 425.658V428.325H400.694V425.658H398.026ZM395.359 428.325V430.993H398.026V428.325H395.359ZM392.691 430.993V433.661H395.359V430.993H392.691ZM390.023 433.661V436.329H392.691V433.661H390.023ZM392.691 436.329V438.997H395.359V436.329H392.691ZM395.359 438.997V441.664H398.026V438.997H395.359ZM398.026 441.664V444.332H400.694V441.664H398.026ZM400.694 444.332V447H403.362V444.332H400.694ZM419.378 422.99V425.658H422.046V422.99H419.378ZM416.71 425.658V428.325H419.378V425.658H416.71ZM414.042 428.325V430.993H416.71V428.325H414.042ZM411.374 430.993V433.661H414.042V430.993H411.374ZM408.707 433.661V436.329H411.374V433.661H408.707ZM411.374 436.329V438.997H414.042V436.329H411.374ZM414.042 438.997V441.664H416.71V438.997H414.042ZM416.71 441.664V444.332H419.378V441.664H416.71ZM419.378 444.332V447H422.046V444.332H419.378ZM438.061 422.99V425.658H440.729V422.99H438.061ZM435.394 425.658V428.325H438.061V425.658H435.394ZM432.726 428.325V430.993H435.394V428.325H432.726ZM430.058 430.993V433.661H432.726V430.993H430.058ZM427.39 433.661V436.329H430.058V433.661H427.39ZM430.058 436.329V438.997H432.726V436.329H430.058ZM432.726 438.997V441.664H435.394V438.997H432.726ZM435.394 441.664V444.332H438.061V441.664H435.394ZM438.061 444.332V447H440.729V444.332H438.061ZM456.745 422.99V425.658H459.413V422.99H456.745ZM454.077 425.658V428.325H456.745V425.658H454.077ZM451.409 428.325V430.993H454.077V428.325H451.409ZM448.742 430.993V433.661H451.409V430.993H448.742ZM446.074 433.661V436.329H448.742V433.661H446.074ZM448.742 436.329V438.997H451.409V436.329H448.742ZM451.409 438.997V441.664H454.077V438.997H451.409ZM454.077 441.664V444.332H456.745V441.664H454.077ZM456.745 444.332V447H459.413V444.332H456.745ZM475.429 422.99V425.658H478.096V422.99H475.429ZM472.761 425.658V428.325H475.429V425.658H472.761ZM470.093 428.325V430.993H472.761V428.325H470.093ZM467.425 430.993V433.661H470.093V430.993H467.425ZM464.757 433.661V436.329H467.425V433.661H464.757ZM467.425 436.329V438.997H470.093V436.329H467.425ZM470.093 438.997V441.664H472.761V438.997H470.093ZM472.761 441.664V444.332H475.429V441.664H472.761ZM475.429 444.332V447H478.096V444.332H475.429ZM494.112 422.99V425.658H496.78V422.99H494.112ZM491.444 425.658V428.325H494.112V425.658H491.444ZM488.777 428.325V430.993H491.444V428.325H488.777ZM486.109 430.993V433.661H488.777V430.993H486.109ZM483.441 433.661V436.329H486.109V433.661H483.441ZM486.109 436.329V438.997H488.777V436.329H486.109ZM488.777 438.997V441.664H491.444V438.997H488.777ZM491.444 441.664V444.332H494.112V441.664H491.444ZM494.112 444.332V447H496.78V444.332H494.112ZM512.796 422.99V425.658H515.464V422.99H512.796ZM510.128 425.658V428.325H512.796V425.658H510.128ZM507.46 428.325V430.993H510.128V428.325H507.46ZM504.792 430.993V433.661H507.46V430.993H504.792ZM502.124 433.661V436.329H504.792V433.661H502.124ZM504.792 436.329V438.997H507.46V436.329H504.792ZM507.46 438.997V441.664H510.128V438.997H507.46ZM510.128 441.664V444.332H512.796V441.664H510.128ZM512.796 444.332V447H515.464V444.332H512.796ZM534.147 420.322H531.479V425.658H534.147V420.322ZM531.479 425.658H528.811V430.993H531.479V425.658ZM528.811 430.993H526.144V436.329H528.811V430.993ZM526.144 436.329H523.476V441.664H526.144V436.329ZM523.476 441.664H520.808V447H523.476V441.664ZM120.441 452.99V455.658H123.108V452.99H120.441ZM117.773 455.658V458.325H120.441V455.658H117.773ZM115.105 458.325V460.993H117.773V458.325H115.105ZM112.437 460.993V463.661H115.105V460.993H112.437ZM109.769 463.661V466.329H112.437V463.661H109.769ZM112.437 466.329V468.997H115.105V466.329H112.437ZM115.105 468.997V471.664H117.773V468.997H115.105ZM117.773 471.664V474.332H120.441V471.664H117.773ZM120.441 474.332V477H123.108V474.332H120.441ZM139.124 452.99V455.658H141.792V452.99H139.124ZM136.456 455.658V458.325H139.124V455.658H136.456ZM133.788 458.325V460.993H136.456V458.325H133.788ZM131.121 460.993V463.661H133.788V460.993H131.121ZM128.453 463.661V466.329H131.121V463.661H128.453ZM131.121 466.329V468.997H133.788V466.329H131.121ZM133.788 468.997V471.664H136.456V468.997H133.788ZM136.456 471.664V474.332H139.124V471.664H136.456ZM139.124 474.332V477H141.792V474.332H139.124ZM157.808 452.99V455.658H160.475V452.99H157.808ZM155.14 455.658V458.325H157.808V455.658H155.14ZM152.472 458.325V460.993H155.14V458.325H152.472ZM149.804 460.993V463.661H152.472V460.993H149.804ZM147.136 463.661V466.329H149.804V463.661H147.136ZM149.804 466.329V468.997H152.472V466.329H149.804ZM152.472 468.997V471.664H155.14V468.997H152.472ZM155.14 471.664V474.332H157.808V471.664H155.14ZM157.808 474.332V477H160.475V474.332H157.808ZM176.491 452.99V455.658H179.159V452.99H176.491ZM173.823 455.658V458.325H176.491V455.658H173.823ZM171.156 458.325V460.993H173.823V458.325H171.156ZM168.488 460.993V463.661H171.156V460.993H168.488ZM165.82 463.661V466.329H168.488V463.661H165.82ZM168.488 466.329V468.997H171.156V466.329H168.488ZM171.156 468.997V471.664H173.823V468.997H171.156ZM173.823 471.664V474.332H176.491V471.664H173.823ZM176.491 474.332V477H179.159V474.332H176.491ZM195.175 452.99V455.658H197.843V452.99H195.175ZM192.507 455.658V458.325H195.175V455.658H192.507ZM189.839 458.325V460.993H192.507V458.325H189.839ZM187.171 460.993V463.661H189.839V460.993H187.171ZM184.504 463.661V466.329H187.171V463.661H184.504ZM187.171 466.329V468.997H189.839V466.329H187.171ZM189.839 468.997V471.664H192.507V468.997H189.839ZM192.507 471.664V474.332H195.175V471.664H192.507ZM195.175 474.332V477H197.843V474.332H195.175ZM213.858 452.99V455.658H216.526V452.99H213.858ZM211.191 455.658V458.325H213.858V455.658H211.191ZM208.523 458.325V460.993H211.191V458.325H208.523ZM205.855 460.993V463.661H208.523V460.993H205.855ZM203.187 463.661V466.329H205.855V463.661H203.187ZM205.855 466.329V468.997H208.523V466.329H205.855ZM208.523 468.997V471.664H211.191V468.997H208.523ZM211.191 471.664V474.332H213.858V471.664H211.191ZM213.858 474.332V477H216.526V474.332H213.858ZM232.542 452.99V455.658H235.21V452.99H232.542ZM229.874 455.658V458.325H232.542V455.658H229.874ZM227.206 458.325V460.993H229.874V458.325H227.206ZM224.539 460.993V463.661H227.206V460.993H224.539ZM221.871 463.661V466.329H224.539V463.661H221.871ZM224.539 466.329V468.997H227.206V466.329H224.539ZM227.206 468.997V471.664H229.874V468.997H227.206ZM229.874 471.664V474.332H232.542V471.664H229.874ZM232.542 474.332V477H235.21V474.332H232.542ZM251.226 452.99V455.658H253.893V452.99H251.226ZM248.558 455.658V458.325H251.226V455.658H248.558ZM245.89 458.325V460.993H248.558V458.325H245.89ZM243.222 460.993V463.661H245.89V460.993H243.222ZM240.554 463.661V466.329H243.222V463.661H240.554ZM243.222 466.329V468.997H245.89V466.329H243.222ZM245.89 468.997V471.664H248.558V468.997H245.89ZM248.558 471.664V474.332H251.226V471.664H248.558ZM251.226 474.332V477H253.893V474.332H251.226ZM269.909 452.99V455.658H272.577V452.99H269.909ZM267.241 455.658V458.325H269.909V455.658H267.241ZM264.574 458.325V460.993H267.241V458.325H264.574ZM261.906 460.993V463.661H264.574V460.993H261.906ZM259.238 463.661V466.329H261.906V463.661H259.238ZM261.906 466.329V468.997H264.574V466.329H261.906ZM264.574 468.997V471.664H267.241V468.997H264.574ZM267.241 471.664V474.332H269.909V471.664H267.241ZM269.909 474.332V477H272.577V474.332H269.909ZM288.593 452.99V455.658H291.261V452.99H288.593ZM285.925 455.658V458.325H288.593V455.658H285.925ZM283.257 458.325V460.993H285.925V458.325H283.257ZM280.589 460.993V463.661H283.257V460.993H280.589ZM277.921 463.661V466.329H280.589V463.661H277.921ZM280.589 466.329V468.997H283.257V466.329H280.589ZM283.257 468.997V471.664H285.925V468.997H283.257ZM285.925 471.664V474.332H288.593V471.664H285.925ZM288.593 474.332V477H291.261V474.332H288.593ZM307.276 452.99V455.658H309.944V452.99H307.276ZM304.609 455.658V458.325H307.276V455.658H304.609ZM301.941 458.325V460.993H304.609V458.325H301.941ZM299.273 460.993V463.661H301.941V460.993H299.273ZM296.605 463.661V466.329H299.273V463.661H296.605ZM299.273 466.329V468.997H301.941V466.329H299.273ZM301.941 468.997V471.664H304.609V468.997H301.941ZM304.609 471.664V474.332H307.276V471.664H304.609ZM307.276 474.332V477H309.944V474.332H307.276ZM325.96 452.99V455.658H328.628V452.99H325.96ZM323.292 455.658V458.325H325.96V455.658H323.292ZM320.624 458.325V460.993H323.292V458.325H320.624ZM317.956 460.993V463.661H320.624V460.993H317.956ZM315.289 463.661V466.329H317.956V463.661H315.289ZM317.956 466.329V468.997H320.624V466.329H317.956ZM320.624 468.997V471.664H323.292V468.997H320.624ZM323.292 471.664V474.332H325.96V471.664H323.292ZM325.96 474.332V477H328.628V474.332H325.96ZM344.643 452.99V455.658H347.311V452.99H344.643ZM341.976 455.658V458.325H344.643V455.658H341.976ZM339.308 458.325V460.993H341.976V458.325H339.308ZM336.64 460.993V463.661H339.308V460.993H336.64ZM333.972 463.661V466.329H336.64V463.661H333.972ZM336.64 466.329V468.997H339.308V466.329H336.64ZM339.308 468.997V471.664H341.976V468.997H339.308ZM341.976 471.664V474.332H344.643V471.664H341.976ZM344.643 474.332V477H347.311V474.332H344.643ZM363.327 452.99V455.658H365.995V452.99H363.327ZM360.659 455.658V458.325H363.327V455.658H360.659ZM357.991 458.325V460.993H360.659V458.325H357.991ZM355.324 460.993V463.661H357.991V460.993H355.324ZM352.656 463.661V466.329H355.324V463.661H352.656ZM355.324 466.329V468.997H357.991V466.329H355.324ZM357.991 468.997V471.664H360.659V468.997H357.991ZM360.659 471.664V474.332H363.327V471.664H360.659ZM363.327 474.332V477H365.995V474.332H363.327ZM382.011 452.99V455.658H384.678V452.99H382.011ZM379.343 455.658V458.325H382.011V455.658H379.343ZM376.675 458.325V460.993H379.343V458.325H376.675ZM374.007 460.993V463.661H376.675V460.993H374.007ZM371.339 463.661V466.329H374.007V463.661H371.339ZM374.007 466.329V468.997H376.675V466.329H374.007ZM376.675 468.997V471.664H379.343V468.997H376.675ZM379.343 471.664V474.332H382.011V471.664H379.343ZM382.011 474.332V477H384.678V474.332H382.011ZM400.694 452.99V455.658H403.362V452.99H400.694ZM398.026 455.658V458.325H400.694V455.658H398.026ZM395.359 458.325V460.993H398.026V458.325H395.359ZM392.691 460.993V463.661H395.359V460.993H392.691ZM390.023 463.661V466.329H392.691V463.661H390.023ZM392.691 466.329V468.997H395.359V466.329H392.691ZM395.359 468.997V471.664H398.026V468.997H395.359ZM398.026 471.664V474.332H400.694V471.664H398.026ZM400.694 474.332V477H403.362V474.332H400.694ZM419.378 452.99V455.658H422.046V452.99H419.378ZM416.71 455.658V458.325H419.378V455.658H416.71ZM414.042 458.325V460.993H416.71V458.325H414.042ZM411.374 460.993V463.661H414.042V460.993H411.374ZM408.707 463.661V466.329H411.374V463.661H408.707ZM411.374 466.329V468.997H414.042V466.329H411.374ZM414.042 468.997V471.664H416.71V468.997H414.042ZM416.71 471.664V474.332H419.378V471.664H416.71ZM419.378 474.332V477H422.046V474.332H419.378ZM438.061 452.99V455.658H440.729V452.99H438.061ZM435.394 455.658V458.325H438.061V455.658H435.394ZM432.726 458.325V460.993H435.394V458.325H432.726ZM430.058 460.993V463.661H432.726V460.993H430.058ZM427.39 463.661V466.329H430.058V463.661H427.39ZM430.058 466.329V468.997H432.726V466.329H430.058ZM432.726 468.997V471.664H435.394V468.997H432.726ZM435.394 471.664V474.332H438.061V471.664H435.394ZM438.061 474.332V477H440.729V474.332H438.061ZM456.745 452.99V455.658H459.413V452.99H456.745ZM454.077 455.658V458.325H456.745V455.658H454.077ZM451.409 458.325V460.993H454.077V458.325H451.409ZM448.742 460.993V463.661H451.409V460.993H448.742ZM446.074 463.661V466.329H448.742V463.661H446.074ZM448.742 466.329V468.997H451.409V466.329H448.742ZM451.409 468.997V471.664H454.077V468.997H451.409ZM454.077 471.664V474.332H456.745V471.664H454.077ZM456.745 474.332V477H459.413V474.332H456.745ZM475.429 452.99V455.658H478.096V452.99H475.429ZM472.761 455.658V458.325H475.429V455.658H472.761ZM470.093 458.325V460.993H472.761V458.325H470.093ZM467.425 460.993V463.661H470.093V460.993H467.425ZM464.757 463.661V466.329H467.425V463.661H464.757ZM467.425 466.329V468.997H470.093V466.329H467.425ZM470.093 468.997V471.664H472.761V468.997H470.093ZM472.761 471.664V474.332H475.429V471.664H472.761ZM475.429 474.332V477H478.096V474.332H475.429ZM494.112 452.99V455.658H496.78V452.99H494.112ZM491.444 455.658V458.325H494.112V455.658H491.444ZM488.777 458.325V460.993H491.444V458.325H488.777ZM486.109 460.993V463.661H488.777V460.993H486.109ZM483.441 463.661V466.329H486.109V463.661H483.441ZM486.109 466.329V468.997H488.777V466.329H486.109ZM488.777 468.997V471.664H491.444V468.997H488.777ZM491.444 471.664V474.332H494.112V471.664H491.444ZM494.112 474.332V477H496.78V474.332H494.112ZM515.464 450.322H512.796V455.658H515.464V450.322ZM512.796 455.658H510.128V460.993H512.796V455.658ZM510.128 460.993H507.46V466.329H510.128V460.993ZM507.46 466.329H504.792V471.664H507.46V466.329ZM504.792 471.664H502.124V477H504.792V471.664Z" fill="#24FFDE"/>
</svg>
