<svg width="281" height="453" viewBox="0 0 281 453" fill="none" xmlns="http://www.w3.org/2000/svg">
<path d="M104.089 24.6644H101.421V30H104.089V24.6644ZM125.441 19.3288V16.661H117.437V19.3288H125.441ZM144.124 19.3288V16.661H136.121V19.3288H144.124ZM160.14 24.6644H157.472V30H160.14V24.6644ZM234.874 0.654123H232.206V32.6678H234.874V0.654123ZM248.222 3.32193H245.554V13.9932H248.222V3.32193ZM258.893 3.32193H256.226V13.9932H258.893V3.32193ZM250.89 13.9932H248.222V24.6644H250.89V13.9932ZM256.226 13.9932H253.558V24.6644H256.226V13.9932ZM253.558 24.6644H250.89V30H253.558V24.6644ZM272.241 0.654123H269.574V32.6678H272.241V0.654123ZM90.7412 33.3219H88.0734V38.6575H90.7412V33.3219ZM88.0734 38.6575H85.4055V43.9932H88.0734V38.6575ZM85.4055 43.9932H82.7377V49.3288H85.4055V43.9932ZM82.7377 49.3288H80.0699V54.6644H82.7377V49.3288ZM80.0699 54.6644H77.4021V60H80.0699V54.6644ZM173.488 33.3219H170.82V38.6575H173.488V33.3219ZM176.156 38.6575H173.488V43.9932H176.156V38.6575ZM178.823 43.9932H176.156V49.3288H178.823V43.9932ZM181.491 49.3288H178.823V54.6644H181.491V49.3288ZM184.159 54.6644H181.491V60H184.159V54.6644ZM224.194 62.6678V60H205.519V62.6678H224.194ZM234.874 30.6541H232.206V62.6678H234.874V30.6541ZM277.577 33.3219H274.909V38.6575H277.577V33.3219ZM274.909 38.6575H272.241V43.9932H274.909V38.6575ZM272.241 43.9932H269.574V49.3288H272.241V43.9932ZM269.574 49.3288H266.906V54.6644H269.574V49.3288ZM266.906 54.6644H264.238V60H266.906V54.6644ZM82.7377 63.3219V65.9897H85.4055V63.3219H82.7377ZM80.0699 65.9897V68.6575H82.7377V65.9897H80.0699ZM85.4055 65.9897V68.6575H88.0734V65.9897H85.4055ZM80.0699 68.6575H77.4021V84.6644H80.0699V81.9966H82.7377V79.3288H80.0699V68.6575ZM85.4055 73.9932H88.0734V84.6644H90.7412V68.6575H88.0734V71.3254H85.4055V73.9932ZM85.4055 73.9932H82.7377V79.3288H85.4055V73.9932ZM80.0699 84.6644V87.3322H82.7377V84.6644H80.0699ZM85.4055 84.6644V87.3322H88.0734V84.6644H85.4055ZM82.7377 87.3322V90H85.4055V87.3322H82.7377ZM122.773 84.6644H120.105V90H122.773V84.6644ZM141.456 84.6644H138.788V90H141.456V84.6644ZM184.159 87.3322H178.823V63.3219H176.156V65.9897H173.488V68.6575H176.156V87.3322H170.82V90H184.159V87.3322ZM170.82 68.6575V71.3254H173.488V68.6575H170.82ZM210.855 63.3219H208.187V68.6575H210.855V63.3219ZM213.523 68.6575H210.855V73.9932H213.523V68.6575ZM216.191 73.9932H213.523V79.3288H216.191V73.9932ZM218.858 79.3288H216.191V84.6644H218.858V79.3288ZM221.526 84.6644H218.858V90H221.526V84.6644ZM258.893 63.3219H256.226V68.6575H258.893V63.3219ZM256.226 68.6575H253.558V73.9932H256.226V68.6575ZM253.558 73.9932H250.89V79.3288H253.558V73.9932ZM250.89 79.3288H248.222V84.6644H250.89V79.3288ZM248.222 84.6644H245.554V90H248.222V84.6644ZM98.7535 93.3219H96.0857V98.6575H98.7535V93.3219ZM101.421 98.6575H98.7535V103.993H101.421V98.6575ZM104.089 103.993H101.421V109.329H104.089V103.993ZM106.757 109.329H104.089V114.664H106.757V109.329ZM109.425 114.664H106.757V120H109.425V114.664ZM125.441 109.329V106.661H117.437V109.329H125.441ZM144.124 109.329V106.661H136.121V109.329H144.124ZM165.475 93.3219H162.808V98.6575H165.475V93.3219ZM162.808 98.6575H160.14V103.993H162.808V98.6575ZM160.14 103.993H157.472V109.329H160.14V103.993ZM157.472 109.329H154.804V114.664H157.472V109.329ZM154.804 114.664H152.136V120H154.804V114.664ZM221.526 93.3219H218.858V98.6575H221.526V93.3219ZM218.858 98.6575H216.191V103.993H218.858V98.6575ZM216.191 103.993H213.523V109.329H216.191V103.993ZM213.523 109.329H210.855V114.664H213.523V109.329ZM210.855 114.664H208.187V120H210.855V114.664ZM240.21 93.3219H237.542V98.6575H240.21V93.3219ZM237.542 98.6575H234.874V103.993H237.542V98.6575ZM234.874 103.993H232.206V109.329H234.874V103.993ZM232.206 109.329H229.539V114.664H232.206V109.329ZM229.539 114.664H226.871V120H229.539V114.664ZM93.409 152.668V150H74.7343V152.668H93.409ZM112.093 152.668V150H93.4179V152.668H112.093ZM122.773 120.654H120.105V152.668H122.773V120.654ZM141.456 120.654H138.788V152.668H141.456V120.654ZM168.143 152.668V150H149.469V152.668H168.143ZM186.827 152.668V150H168.152V152.668H186.827ZM202.843 123.322H200.175V128.658H202.843V123.322ZM200.175 128.658H197.507V133.993H200.175V128.658ZM197.507 133.993H194.839V139.329H197.507V133.993ZM194.839 139.329H192.171V144.664H194.839V139.329ZM192.171 144.664H189.504V150H192.171V144.664ZM221.526 123.322H218.858V128.658H221.526V123.322ZM218.858 128.658H216.191V133.993H218.858V128.658ZM216.191 133.993H213.523V139.329H216.191V133.993ZM213.523 139.329H210.855V144.664H213.523V139.329ZM210.855 144.664H208.187V150H210.855V144.664ZM72.0576 153.322H69.3898V158.658H72.0576V153.322ZM69.3898 158.658H66.722V163.993H69.3898V158.658ZM66.722 163.993H64.0542V169.329H66.722V163.993ZM64.0542 169.329H61.3864V174.664H64.0542V169.329ZM61.3864 174.664H58.7185V180H61.3864V174.664ZM85.4055 174.664H82.7377V180H85.4055V174.664ZM186.827 182.668V180H168.152V182.668H186.827ZM202.843 153.322H200.175V158.658H202.843V153.322ZM200.175 158.658H197.507V163.993H200.175V158.658ZM197.507 163.993H194.839V169.329H197.507V163.993ZM194.839 169.329H192.171V174.664H194.839V169.329ZM192.171 174.664H189.504V180H192.171V174.664ZM53.374 183.322H50.7062V188.658H53.374V183.322ZM50.7062 188.658H48.0384V193.993H50.7062V188.658ZM48.0384 193.993H45.3706V199.329H48.0384V193.993ZM45.3706 199.329H42.7028V204.664H45.3706V199.329ZM42.7028 204.664H40.035V210H42.7028V204.664ZM72.0576 183.322H69.3898V188.658H72.0576V183.322ZM69.3898 188.658H66.722V193.993H69.3898V188.658ZM66.722 193.993H64.0542V199.329H66.722V193.993ZM64.0542 199.329H61.3864V204.664H64.0542V199.329ZM61.3864 204.664H58.7185V210H61.3864V204.664ZM98.7535 183.322H96.0857V188.658H98.7535V183.322ZM101.421 188.658H98.7535V193.993H101.421V188.658ZM104.089 193.993H101.421V199.329H104.089V193.993ZM106.757 199.329H104.089V204.664H106.757V199.329ZM109.425 204.664H106.757V210H109.425V204.664ZM165.475 183.322H162.808V188.658H165.475V183.322ZM162.808 188.658H160.14V193.993H162.808V188.658ZM160.14 193.993H157.472V199.329H160.14V193.993ZM157.472 199.329H154.804V204.664H157.472V199.329ZM154.804 204.664H152.136V210H154.804V204.664ZM34.6904 213.322H32.0226V218.658H34.6904V213.322ZM32.0226 218.658H29.3548V223.993H32.0226V218.658ZM29.3548 223.993H26.687V229.329H29.3548V223.993ZM26.687 229.329H24.0192V234.664H26.687V229.329ZM24.0192 234.664H21.3514V240H24.0192V234.664ZM53.374 213.322H50.7062V218.658H53.374V213.322ZM50.7062 218.658H48.0384V223.993H50.7062V218.658ZM48.0384 223.993H45.3706V229.329H48.0384V223.993ZM45.3706 229.329H42.7028V234.664H45.3706V229.329ZM42.7028 234.664H40.035V240H42.7028V234.664ZM122.773 210.654H120.105V242.668H122.773V210.654ZM141.456 210.654H138.788V242.668H141.456V210.654ZM24.0192 243.322H21.3514V248.658H24.0192V243.322ZM26.687 248.658H24.0192V253.993H26.687V248.658ZM29.3548 253.993H26.687V259.329H29.3548V253.993ZM32.0226 259.329H29.3548V264.664H32.0226V259.329ZM34.6904 264.664H32.0226V270H34.6904V264.664ZM42.7028 243.322H40.035V248.658H42.7028V243.322ZM45.3706 248.658H42.7028V253.993H45.3706V248.658ZM48.0384 253.993H45.3706V259.329H48.0384V253.993ZM50.7062 259.329H48.0384V264.664H50.7062V259.329ZM53.374 264.664H50.7062V270H53.374V264.664ZM109.425 243.322H106.757V248.658H109.425V243.322ZM106.757 248.658H104.089V253.993H106.757V248.658ZM104.089 253.993H101.421V259.329H104.089V253.993ZM101.421 259.329H98.7535V264.664H101.421V259.329ZM98.7535 264.664H96.0857V270H98.7535V264.664ZM154.804 243.322H152.136V248.658H154.804V243.322ZM157.472 248.658H154.804V253.993H157.472V248.658ZM160.14 253.993H157.472V259.329H160.14V253.993ZM162.808 259.329H160.14V264.664H162.808V259.329ZM165.475 264.664H162.808V270H165.475V264.664ZM40.035 275.99H42.7028V273.322H40.035V275.99ZM42.7028 278.658H45.3706V275.99H42.7028V278.658ZM45.3706 281.325H48.0384V278.658H45.3706V281.325ZM50.7062 281.325H48.0384V291.997H50.7062V281.325ZM45.3706 294.664H48.0384V291.997H45.3706V294.664ZM42.7028 297.332H45.3706V294.664H42.7028V297.332ZM40.035 300H42.7028V297.332H40.035V300ZM61.3864 273.322H58.7185V278.658H61.3864V273.322ZM64.0542 278.658H61.3864V283.993H64.0542V278.658ZM66.722 283.993H64.0542V289.329H66.722V283.993ZM69.3898 289.329H66.722V294.664H69.3898V289.329ZM72.0576 294.664H69.3898V300H72.0576V294.664ZM85.4055 270.654H82.7377V302.668H85.4055V270.654ZM178.823 270.654H176.156V302.668H178.823V270.654ZM34.6904 303.322H32.0226V308.658H34.6904V303.322ZM32.0226 308.658H29.3548V313.993H32.0226V308.658ZM29.3548 313.993H26.687V319.329H29.3548V313.993ZM26.687 319.329H24.0192V324.664H26.687V319.329ZM24.0192 324.664H21.3514V330H24.0192V324.664ZM66.722 300.654H64.0542V332.668H66.722V300.654ZM85.4055 300.654H82.7377V332.668H85.4055V300.654ZM122.773 300.654H120.105V332.668H122.773V300.654ZM141.456 300.654H138.788V332.668H141.456V300.654ZM178.823 300.654H176.156V332.668H178.823V300.654ZM29.3548 330.654H26.687V362.668H29.3548V330.654ZM53.374 333.322H50.7062V338.658H53.374V333.322ZM50.7062 338.658H48.0384V343.993H50.7062V338.658ZM48.0384 343.993H45.3706V349.329H48.0384V343.993ZM45.3706 349.329H42.7028V354.664H45.3706V349.329ZM42.7028 354.664H40.035V360H42.7028V354.664ZM61.3864 333.322H58.7185V338.658H61.3864V333.322ZM64.0542 338.658H61.3864V343.993H64.0542V338.658ZM66.722 343.993H64.0542V349.329H66.722V343.993ZM69.3898 349.329H66.722V354.664H69.3898V349.329ZM72.0576 354.664H69.3898V360H72.0576V354.664ZM85.4055 330.654H82.7377V362.668H85.4055V330.654ZM122.773 330.654H120.105V362.668H122.773V330.654ZM141.456 330.654H138.788V362.668H141.456V330.654ZM178.823 330.654H176.156V362.668H178.823V330.654ZM80.0699 363.322H77.4021V368.658H80.0699V363.322ZM82.7377 368.658H80.0699V373.993H82.7377V368.658ZM85.4055 373.993H82.7377V379.329H85.4055V373.993ZM88.0734 379.329H85.4055V384.664H88.0734V379.329ZM90.7412 384.664H88.0734V390H90.7412V384.664ZM122.773 360.654H120.105V392.668H122.773V360.654ZM141.456 360.654H138.788V392.668H141.456V360.654ZM184.159 363.322H181.491V368.658H184.159V363.322ZM181.491 368.658H178.823V373.993H181.491V368.658ZM178.823 373.993H176.156V379.329H178.823V373.993ZM176.156 379.329H173.488V384.664H176.156V379.329ZM173.488 384.664H170.82V390H173.488V384.664ZM56.0418 422.668V420H37.3672V422.668H56.0418ZM74.7254 422.668V420H56.0507V422.668H74.7254ZM90.7412 393.322H88.0734V398.658H90.7412V393.322ZM88.0734 398.658H85.4055V403.993H88.0734V398.658ZM85.4055 403.993H82.7377V409.329H85.4055V403.993ZM82.7377 409.329H80.0699V414.664H82.7377V409.329ZM80.0699 414.664H77.4021V420H80.0699V414.664ZM122.773 390.654H120.105V422.668H122.773V390.654ZM141.456 390.654H138.788V422.668H141.456V390.654ZM173.488 393.322H170.82V398.658H173.488V393.322ZM176.156 398.658H173.488V403.993H176.156V398.658ZM178.823 403.993H176.156V409.329H178.823V403.993ZM181.491 409.329H178.823V414.664H181.491V409.329ZM184.159 414.664H181.491V420H184.159V414.664ZM205.51 422.668V420H186.836V422.668H205.51ZM224.194 422.668V420H205.519V422.668H224.194ZM24.0192 423.322H21.3514V428.658H24.0192V423.322ZM26.687 428.658H24.0192V433.993H26.687V428.658ZM29.3548 433.993H26.687V439.329H29.3548V433.993ZM32.0226 439.329H29.3548V444.664H32.0226V439.329ZM34.6904 444.664H32.0226V450H34.6904V444.664ZM56.0418 452.668V450H37.3672V452.668H56.0418ZM74.7254 452.668V450H56.0507V452.668H74.7254ZM93.409 452.668V450H74.7343V452.668H93.409ZM112.093 452.668V450H93.4179V452.668H112.093ZM128.108 423.322H125.441V428.658H128.108V423.322ZM125.441 428.658H122.773V433.993H125.441V428.658ZM122.773 433.993H120.105V439.329H122.773V433.993ZM120.105 439.329H117.437V444.664H120.105V439.329ZM117.437 444.664H114.769V450H117.437V444.664ZM136.121 423.322H133.453V428.658H136.121V423.322ZM138.788 428.658H136.121V433.993H138.788V428.658ZM141.456 433.993H138.788V439.329H141.456V433.993ZM144.124 439.329H141.456V444.664H144.124V439.329ZM146.792 444.664H144.124V450H146.792V444.664ZM168.143 452.668V450H149.469V452.668H168.143ZM186.827 452.668V450H168.152V452.668H186.827ZM205.51 452.668V450H186.836V452.668H205.51ZM224.194 452.668V450H205.519V452.668H224.194ZM240.21 423.322H237.542V428.658H240.21V423.322ZM237.542 428.658H234.874V433.993H237.542V428.658ZM234.874 433.993H232.206V439.329H234.874V433.993ZM232.206 439.329H229.539V444.664H232.206V439.329ZM229.539 444.664H226.871V450H229.539V444.664Z" fill="#24FFDE"/>
</svg>
