<svg id="Layer_1" data-name="Layer 1" xmlns="http://www.w3.org/2000/svg" width="60.15" height="19.99" viewBox="0 0 60.15 19.99">
  <defs>
    <style>
      .cls-1 {
        fill: #fff;
      }

      .cls-2 {
        fill: #f18a00;
      }
    </style>
  </defs>
  <title>Flowtec_NY</title>
  <g>
    <path class="cls-1" d="M7,2.56a12.84,12.84,0,0,0-1.78-.22c-.67,0-1.11.22-1.11.78V5H6.67V7.23H4.11v7.12H1.67V7.23H0V5.56l1.67-.44v-2c0-2,1-3.11,3.56-3.11A15.23,15.23,0,0,1,7,.22Z"/>
    <path class="cls-1" d="M31,9.67l1.11-5h2.56L32,14.34H30L28.46,8.45l-1.56,5.89H25L22.24,4.67H24.9l1.11,5,1.33-5h2.22Z"/>
    <path class="cls-1" d="M41.58,14.12a5.29,5.29,0,0,1-1.45.22c-1.56,0-3.22-.89-3.22-2.78V6.89H35.24V5.23l1.67-.44V2.56l2.45-.67V4.67h2.56V6.89H39.36v4.56c0,.44.33.56.89.56.33,0,1-.11,1.33-.11Z"/>
    <path class="cls-1" d="M45.81,10.56A1.47,1.47,0,0,0,47.47,12a8.92,8.92,0,0,0,3.34-.67v2.45a7.45,7.45,0,0,1-3.34.67c-3.22,0-4.22-2-4.22-5s1-5,4.22-5,3.78,2.33,3.78,5v1.22H45.81Zm0-2.22H48.7c0-.89-.22-1.67-1.22-1.67S45.92,7.45,45.81,8.34Z"/>
    <path class="cls-1" d="M57,12a10.84,10.84,0,0,0,3.11-.56v2.33a8,8,0,0,1-3.11.56c-3.22,0-4.22-2-4.22-5s1-5,4.22-5A6.43,6.43,0,0,1,60,5V7.34a7.69,7.69,0,0,0-3.11-.56c-1.45,0-1.67,1.22-1.67,2.67S55.59,12,57,12Z"/>
    <path class="cls-2" d="M17.46,4.34c-3.45,0-4.22,2.11-4.22,5a6.84,6.84,0,0,0,.11,1.56H15.9a6.84,6.84,0,0,1-.11-1.56c0-1.45.22-2.67,1.78-2.67s1.78,1.22,1.78,2.67S19.12,12,17.57,12H11.67c-.56,0-.67-.22-.67-.56V0H8.34V11.9a2.13,2.13,0,0,0,2.45,2.45h6.56c3.45,0,4.22-2.11,4.22-5S20.9,4.34,17.46,4.34Z"/>
  </g>
  <g>
    <path class="cls-1" d="M1.54,19.37H1V16.7h.5Z"/>
    <path class="cls-1" d="M2.11,19.37v-1.9h.28a.11.11,0,0,1,.12.08l0,.15.12-.11.13-.08.15-.05.18,0a.68.68,0,0,1,.28.05.55.55,0,0,1,.2.15.64.64,0,0,1,.12.23,1,1,0,0,1,0,.29v1.21H3.31V18.16a.41.41,0,0,0-.08-.27A.3.3,0,0,0,3,17.8a.47.47,0,0,0-.22.05.77.77,0,0,0-.2.15v1.37Z"/>
    <path class="cls-1" d="M5.34,17.84l0,0H5.25l-.07,0-.09,0L5,17.8l-.15,0a.35.35,0,0,0-.21.06.18.18,0,0,0-.08.15.14.14,0,0,0,0,.1.34.34,0,0,0,.11.07l.15.06.17.05.17.07a.62.62,0,0,1,.15.1.43.43,0,0,1,.15.34.63.63,0,0,1,0,.25.56.56,0,0,1-.15.2.69.69,0,0,1-.24.13,1,1,0,0,1-.32,0l-.19,0-.18,0-.16-.07L4,19.17,4.15,19l0,0,.07,0,.08,0,.09.05.12.05.17,0,.14,0L5,19A.2.2,0,0,0,5,18.94a.22.22,0,0,0,0-.09.15.15,0,0,0,0-.11l-.11-.07-.15-.06-.17-.05-.17-.07a.58.58,0,0,1-.15-.1.46.46,0,0,1-.11-.15.53.53,0,0,1,0-.21.54.54,0,0,1,0-.22.52.52,0,0,1,.14-.18.68.68,0,0,1,.22-.13,1,1,0,0,1,.67,0,.82.82,0,0,1,.27.17Z"/>
    <path class="cls-1" d="M6.45,19.4a.5.5,0,0,1-.38-.14.54.54,0,0,1-.13-.39V17.82H5.75l-.06,0a.09.09,0,0,1,0-.07v-.18l.31,0,.1-.52a.09.09,0,0,1,0-.06l.07,0H6.4v.6h.5v.33H6.4v1a.2.2,0,0,0,0,.14.15.15,0,0,0,.12,0h.07l0,0,0,0h.07l0,0,.14.22a.69.69,0,0,1-.23.13A.85.85,0,0,1,6.45,19.4Z"/>
    <path class="cls-1" d="M7.26,19.37v-1.9h.27a.14.14,0,0,1,.1,0,.15.15,0,0,1,0,.09l0,.23a.9.9,0,0,1,.24-.28.5.5,0,0,1,.31-.1.39.39,0,0,1,.23.07l-.06.34a.07.07,0,0,1,0,0H8.14a.39.39,0,0,0-.24.08.6.6,0,0,0-.17.23v1.18Z"/>
    <path class="cls-1" d="M9.19,17.47v1.21a.41.41,0,0,0,.08.27.3.3,0,0,0,.24.1A.48.48,0,0,0,9.74,19a.77.77,0,0,0,.2-.15V17.47h.46v1.9h-.28a.11.11,0,0,1-.12-.08l0-.15-.12.11-.13.08-.15.05-.18,0a.67.67,0,0,1-.27-.05.54.54,0,0,1-.2-.15A.66.66,0,0,1,8.78,19a1,1,0,0,1,0-.29V17.47Z"/>
    <path class="cls-1" d="M10.88,19.37v-1.9h.28a.11.11,0,0,1,.12.08l0,.14.1-.1.12-.08.13-.05.16,0a.45.45,0,0,1,.3.1.6.6,0,0,1,.17.26.56.56,0,0,1,.11-.16.62.62,0,0,1,.15-.11l.17-.06.18,0a.76.76,0,0,1,.28,0,.54.54,0,0,1,.21.14.62.62,0,0,1,.13.23,1,1,0,0,1,0,.31v1.21h-.46V18.16a.4.4,0,0,0-.08-.27.29.29,0,0,0-.23-.09l-.13,0a.31.31,0,0,0-.11.07.31.31,0,0,0-.07.11.44.44,0,0,0,0,.16v1.21H12V18.16a.41.41,0,0,0-.08-.28.28.28,0,0,0-.23-.09.37.37,0,0,0-.18,0,.61.61,0,0,0-.16.13v1.39Z"/>
    <path class="cls-1" d="M14.78,17.44a.92.92,0,0,1,.33.06.72.72,0,0,1,.26.17.77.77,0,0,1,.17.27,1,1,0,0,1,.06.37.6.6,0,0,1,0,.09.13.13,0,0,1,0,.05l0,0H14.32a.65.65,0,0,0,.16.43.49.49,0,0,0,.36.14A.62.62,0,0,0,15,19l.14-.06.11-.06.09,0h0l0,0,.13.17a.76.76,0,0,1-.17.15l-.2.1-.21.05H14.8a1,1,0,0,1-.37-.07.83.83,0,0,1-.3-.19.91.91,0,0,1-.2-.32,1.23,1.23,0,0,1-.07-.44,1.05,1.05,0,0,1,.06-.37.88.88,0,0,1,.18-.3.85.85,0,0,1,.29-.2A.94.94,0,0,1,14.78,17.44Zm0,.33a.42.42,0,0,0-.31.11.56.56,0,0,0-.14.32h.86a.57.57,0,0,0,0-.17.38.38,0,0,0-.07-.14.36.36,0,0,0-.13-.09A.43.43,0,0,0,14.79,17.77Z"/>
    <path class="cls-1" d="M16,19.37v-1.9h.28a.11.11,0,0,1,.12.08l0,.15.12-.11.13-.08.15-.05.18,0a.68.68,0,0,1,.28.05.55.55,0,0,1,.2.15.64.64,0,0,1,.12.23,1,1,0,0,1,0,.29v1.21h-.46V18.16a.41.41,0,0,0-.08-.27.3.3,0,0,0-.24-.09.47.47,0,0,0-.22.05.77.77,0,0,0-.2.15v1.37Z"/>
    <path class="cls-1" d="M18.7,19.4a.5.5,0,0,1-.38-.14.54.54,0,0,1-.13-.39V17.82H18l-.06,0a.09.09,0,0,1,0-.07v-.18l.31,0,.1-.52a.09.09,0,0,1,0-.06l.07,0h.24v.6h.5v.33h-.5v1a.2.2,0,0,0,0,.14.15.15,0,0,0,.12,0h.07l0,0,0,0H19l0,0,.14.22a.69.69,0,0,1-.23.13A.85.85,0,0,1,18.7,19.4Z"/>
    <path class="cls-1" d="M21,19.37h-.21l-.1,0a.12.12,0,0,1-.06-.08l0-.14-.14.11-.14.08-.16,0-.19,0a.73.73,0,0,1-.22,0,.47.47,0,0,1-.17-.1.44.44,0,0,1-.11-.16.58.58,0,0,1,0-.22.45.45,0,0,1,.06-.21.54.54,0,0,1,.19-.19,1.21,1.21,0,0,1,.35-.14,2.23,2.23,0,0,1,.54-.06v-.11a.42.42,0,0,0-.08-.28.29.29,0,0,0-.23-.09.59.59,0,0,0-.19,0l-.13.06-.1.06-.1,0-.08,0-.05-.06-.08-.15a1.13,1.13,0,0,1,.79-.3.77.77,0,0,1,.3.05.63.63,0,0,1,.22.15.65.65,0,0,1,.14.23.9.9,0,0,1,0,.3Zm-.89-.29h.13l.11,0,.1-.06.1-.09v-.32a1.87,1.87,0,0,0-.33,0,.86.86,0,0,0-.22.06.27.27,0,0,0-.12.09.23.23,0,0,0,0,.29A.31.31,0,0,0,20.1,19.09Z"/>
    <path class="cls-1" d="M22.07,19.4a.5.5,0,0,1-.38-.14.54.54,0,0,1-.13-.39V17.82h-.19l-.06,0a.09.09,0,0,1,0-.07v-.18l.31,0,.1-.52a.09.09,0,0,1,0-.06l.07,0H22v.6h.5v.33H22v1a.2.2,0,0,0,0,.14.15.15,0,0,0,.12,0h.07l0,0,0,0h.07l0,0,.14.22a.69.69,0,0,1-.23.13A.85.85,0,0,1,22.07,19.4Z"/>
    <path class="cls-1" d="M23.43,16.92a.27.27,0,0,1,0,.11.3.3,0,0,1-.06.09l-.09.06-.11,0-.11,0-.09-.06a.29.29,0,0,1-.06-.09.27.27,0,0,1,0-.11.29.29,0,0,1,.08-.21l.09-.06.11,0,.11,0,.09.06a.3.3,0,0,1,.06.09A.29.29,0,0,1,23.43,16.92Zm-.07.55v1.9H22.9v-1.9Z"/>
    <path class="cls-1" d="M24.69,17.44a1,1,0,0,1,.39.07.84.84,0,0,1,.29.19.86.86,0,0,1,.19.31,1.16,1.16,0,0,1,.07.4,1.18,1.18,0,0,1-.07.41.89.89,0,0,1-.19.31.81.81,0,0,1-.29.2,1.13,1.13,0,0,1-.77,0,.82.82,0,0,1-.3-.2.9.9,0,0,1-.19-.31,1.16,1.16,0,0,1-.07-.41,1.15,1.15,0,0,1,.07-.4.87.87,0,0,1,.19-.31.84.84,0,0,1,.3-.19A1,1,0,0,1,24.69,17.44Zm0,1.6a.4.4,0,0,0,.35-.16A1,1,0,0,0,25,18a.4.4,0,0,0-.35-.16.41.41,0,0,0-.36.16,1,1,0,0,0,0,.93A.41.41,0,0,0,24.69,19Z"/>
    <path class="cls-1" d="M26,19.37v-1.9h.28a.11.11,0,0,1,.12.08l0,.15.12-.11.13-.08.15-.05.18,0a.68.68,0,0,1,.28.05.55.55,0,0,1,.2.15.64.64,0,0,1,.12.23,1,1,0,0,1,0,.29v1.21h-.46V18.16a.41.41,0,0,0-.08-.27.3.3,0,0,0-.24-.09.47.47,0,0,0-.22.05.77.77,0,0,0-.2.15v1.37Z"/>
    <path class="cls-1" d="M28.74,18.06h1v.38h-1Z"/>
    <path class="cls-1" d="M31.38,18.43v.94h-.5V16.7h.87a1.52,1.52,0,0,1,.46.06.9.9,0,0,1,.32.18.69.69,0,0,1,.19.27,1,1,0,0,1,0,.7.74.74,0,0,1-.19.28.9.9,0,0,1-.32.18,1.42,1.42,0,0,1-.46.07Zm0-.39h.37A.76.76,0,0,0,32,18a.44.44,0,0,0,.17-.1.4.4,0,0,0,.1-.16.58.58,0,0,0,0-.2.53.53,0,0,0,0-.19.39.39,0,0,0-.1-.15.44.44,0,0,0-.17-.09.79.79,0,0,0-.24,0h-.37Z"/>
    <path class="cls-1" d="M33.57,17.47v1.21a.41.41,0,0,0,.08.27.3.3,0,0,0,.24.1.48.48,0,0,0,.22-.05.77.77,0,0,0,.2-.15V17.47h.46v1.9h-.28a.11.11,0,0,1-.12-.08l0-.15-.12.11-.13.08-.15.05-.18,0a.68.68,0,0,1-.28-.05.54.54,0,0,1-.2-.15.64.64,0,0,1-.12-.23,1,1,0,0,1,0-.29V17.47Z"/>
    <path class="cls-1" d="M35.26,19.37v-1.9h.28a.11.11,0,0,1,.12.08l0,.14.1-.1.12-.08.13-.05.16,0a.44.44,0,0,1,.29.1.59.59,0,0,1,.17.26.56.56,0,0,1,.11-.16.6.6,0,0,1,.15-.11l.17-.06.18,0a.75.75,0,0,1,.28,0,.54.54,0,0,1,.21.14.62.62,0,0,1,.13.23,1,1,0,0,1,0,.31v1.21h-.46V18.16a.41.41,0,0,0-.08-.27.29.29,0,0,0-.23-.09l-.13,0a.3.3,0,0,0-.18.18.46.46,0,0,0,0,.16v1.21h-.46V18.16a.41.41,0,0,0-.08-.28.28.28,0,0,0-.23-.09.37.37,0,0,0-.18,0,.6.6,0,0,0-.16.13v1.39Z"/>
    <path class="cls-1" d="M38.37,20V17.47h.28l.08,0a.1.1,0,0,1,0,.06l0,.18a1,1,0,0,1,.26-.21.71.71,0,0,1,.35-.08.61.61,0,0,1,.28.07.64.64,0,0,1,.22.19.89.89,0,0,1,.14.3,1.51,1.51,0,0,1,.05.41,1.31,1.31,0,0,1-.06.39,1,1,0,0,1-.16.31.73.73,0,0,1-.59.28.63.63,0,0,1-.47-.18V20Zm.89-2.19a.47.47,0,0,0-.24.06.69.69,0,0,0-.19.17v.85A.43.43,0,0,0,39,19a.51.51,0,0,0,.2,0,.43.43,0,0,0,.19,0,.35.35,0,0,0,.14-.12.57.57,0,0,0,.09-.2,1.13,1.13,0,0,0,0-.29,1.29,1.29,0,0,0,0-.28.54.54,0,0,0-.08-.19.3.3,0,0,0-.12-.11A.38.38,0,0,0,39.26,17.8Z"/>
    <path class="cls-1" d="M41.59,17.84l0,0H41.5l-.07,0-.09,0-.11,0-.15,0a.35.35,0,0,0-.21.06.18.18,0,0,0-.08.15.14.14,0,0,0,0,.1l.11.07.15.06.17.05.17.07a.62.62,0,0,1,.15.1.43.43,0,0,1,.15.34.63.63,0,0,1,0,.25.57.57,0,0,1-.15.2.69.69,0,0,1-.24.13,1,1,0,0,1-.32,0l-.19,0-.18,0-.16-.07-.13-.09L40.4,19l0,0,.07,0,.08,0,.09.05.12.05.17,0,.14,0,.1-.05a.2.2,0,0,0,.06-.07.22.22,0,0,0,0-.09.15.15,0,0,0,0-.11l-.11-.07L41,18.61l-.17-.05-.17-.07a.57.57,0,0,1-.15-.1.45.45,0,0,1-.11-.15.53.53,0,0,1,0-.21.54.54,0,0,1,0-.22.52.52,0,0,1,.14-.18.69.69,0,0,1,.22-.13,1,1,0,0,1,.67,0,.82.82,0,0,1,.27.17Z"/>
    <path class="cls-1" d="M42.73,18.06h1v.38h-1Z"/>
    <path class="cls-1" d="M46.3,17.18a.14.14,0,0,1,0,.06l-.06,0-.08,0L46,17.17l-.15-.06a.6.6,0,0,0-.2,0l-.18,0a.39.39,0,0,0-.13.07.29.29,0,0,0-.08.11.34.34,0,0,0,0,.14.24.24,0,0,0,.05.16.44.44,0,0,0,.14.11l.2.08.23.08.23.09a.77.77,0,0,1,.2.13.61.61,0,0,1,.14.2.69.69,0,0,1,.05.28.92.92,0,0,1-.06.34.8.8,0,0,1-.18.28.86.86,0,0,1-.29.18,1.08,1.08,0,0,1-.39.07l-.25,0L45,19.31l-.21-.11a1,1,0,0,1-.18-.14l.14-.24,0,0,.06,0a.18.18,0,0,1,.1,0l.13.08.17.08a.66.66,0,0,0,.24,0,.49.49,0,0,0,.33-.1A.36.36,0,0,0,46,18.6a.27.27,0,0,0-.05-.17.42.42,0,0,0-.14-.11l-.2-.08-.23-.07-.23-.09A.71.71,0,0,1,45,18a.62.62,0,0,1-.14-.21.79.79,0,0,1-.05-.31A.74.74,0,0,1,45,16.9a.84.84,0,0,1,.27-.17,1,1,0,0,1,.37-.07,1.26,1.26,0,0,1,.44.07,1,1,0,0,1,.34.21Z"/>
    <path class="cls-1" d="M47.63,17.44a1,1,0,0,1,.39.07.83.83,0,0,1,.29.19.86.86,0,0,1,.19.31,1.15,1.15,0,0,1,.07.4,1.16,1.16,0,0,1-.07.41.89.89,0,0,1-.19.31.81.81,0,0,1-.29.2,1.13,1.13,0,0,1-.77,0,.82.82,0,0,1-.3-.2.89.89,0,0,1-.19-.31,1.16,1.16,0,0,1-.07-.41,1.15,1.15,0,0,1,.07-.4.86.86,0,0,1,.19-.31.84.84,0,0,1,.3-.19A1,1,0,0,1,47.63,17.44Zm0,1.6a.4.4,0,0,0,.35-.16A1,1,0,0,0,48,18a.47.47,0,0,0-.71,0,1,1,0,0,0,0,.93A.41.41,0,0,0,47.63,19Z"/>
    <path class="cls-1" d="M49.41,16.62v2.75H49V16.62Z"/>
    <path class="cls-1" d="M50.35,17.47v1.21a.41.41,0,0,0,.08.27.3.3,0,0,0,.24.1.48.48,0,0,0,.22-.05.77.77,0,0,0,.2-.15V17.47h.46v1.9h-.28a.11.11,0,0,1-.12-.08l0-.15-.12.11-.13.08-.15.05-.18,0a.68.68,0,0,1-.28-.05.54.54,0,0,1-.2-.15.64.64,0,0,1-.12-.23,1,1,0,0,1,0-.29V17.47Z"/>
    <path class="cls-1" d="M52.65,19.4a.5.5,0,0,1-.38-.14.54.54,0,0,1-.13-.39V17.82H52l-.06,0a.09.09,0,0,1,0-.07v-.18l.3,0,.1-.52a.09.09,0,0,1,0-.06l.07,0h.24v.6h.5v.33h-.5v1a.2.2,0,0,0,0,.14.15.15,0,0,0,.12,0h.07l0,0,0,0H53l0,0,.14.22a.68.68,0,0,1-.23.13A.85.85,0,0,1,52.65,19.4Z"/>
    <path class="cls-1" d="M54,16.92A.27.27,0,0,1,54,17a.3.3,0,0,1-.06.09l-.09.06-.12,0-.11,0-.09-.06a.29.29,0,0,1-.06-.09.29.29,0,0,1,0-.11.3.3,0,0,1,0-.12.29.29,0,0,1,.06-.09l.09-.06.11,0,.12,0,.09.06a.29.29,0,0,1,.06.09A.29.29,0,0,1,54,16.92Zm-.07.55v1.9h-.46v-1.9Z"/>
    <path class="cls-1" d="M55.28,17.44a1,1,0,0,1,.39.07.83.83,0,0,1,.29.19.86.86,0,0,1,.19.31,1.15,1.15,0,0,1,.07.4,1.16,1.16,0,0,1-.07.41.89.89,0,0,1-.19.31.81.81,0,0,1-.29.2,1.13,1.13,0,0,1-.77,0,.82.82,0,0,1-.3-.2.89.89,0,0,1-.19-.31,1.16,1.16,0,0,1-.07-.41,1.15,1.15,0,0,1,.07-.4.86.86,0,0,1,.19-.31.84.84,0,0,1,.3-.19A1,1,0,0,1,55.28,17.44Zm0,1.6a.4.4,0,0,0,.35-.16,1,1,0,0,0,0-.93.47.47,0,0,0-.71,0,1,1,0,0,0,0,.93A.41.41,0,0,0,55.28,19Z"/>
    <path class="cls-1" d="M56.57,19.37v-1.9h.28a.11.11,0,0,1,.12.08l0,.15.12-.11.13-.08.15-.05.18,0a.68.68,0,0,1,.28.05.54.54,0,0,1,.2.15.64.64,0,0,1,.12.23,1,1,0,0,1,0,.29v1.21h-.46V18.16a.41.41,0,0,0-.08-.27.3.3,0,0,0-.24-.09.47.47,0,0,0-.22.05A.77.77,0,0,0,57,18v1.37Z"/>
    <path class="cls-1" d="M59.8,17.84l0,0h-.05l-.07,0-.09,0-.11,0-.15,0a.35.35,0,0,0-.21.06A.18.18,0,0,0,59,18a.14.14,0,0,0,0,.1l.11.07.15.06.17.05.17.07a.62.62,0,0,1,.15.1.43.43,0,0,1,.15.34.63.63,0,0,1,0,.25.57.57,0,0,1-.15.2.69.69,0,0,1-.24.13,1,1,0,0,1-.32,0l-.19,0-.18,0-.16-.07-.13-.09.11-.17,0,0,.07,0,.08,0,.09.05.12.05.17,0,.14,0,.1-.05a.2.2,0,0,0,.06-.07.22.22,0,0,0,0-.09.15.15,0,0,0,0-.11l-.11-.07-.15-.06L59,18.56l-.17-.07a.57.57,0,0,1-.15-.1.45.45,0,0,1-.11-.15.53.53,0,0,1,0-.21.54.54,0,0,1,0-.22.52.52,0,0,1,.14-.18.69.69,0,0,1,.22-.13,1,1,0,0,1,.67,0,.82.82,0,0,1,.27.17Z"/>
  </g>
</svg>
